<svg width="15" height="11" viewBox="0 0 15 11" fill="none" xmlns="http://www.w3.org/2000/svg">
<path d="M15.0003 0.646667C15.0004 0.782518 14.9573 0.914937 14.8773 1.02472L8.02131 10.4577C7.96157 10.5399 7.88322 10.6068 7.79267 10.653C7.70212 10.6991 7.60194 10.7231 7.50031 10.7231C7.39868 10.7231 7.2985 10.6991 7.20795 10.653C7.1174 10.6068 7.03905 10.5399 6.97931 10.4577L0.123236 1.02472C0.0227186 0.886541 -0.0187509 0.714071 0.00787924 0.545288C0.0345094 0.376505 0.127148 0.225212 0.265326 0.124695C0.403503 0.0241776 0.575913 -0.0173531 0.744696 0.00927734C0.913478 0.0359077 1.06471 0.128546 1.16523 0.266724L7.50031 8.98273L13.8343 0.266724C13.9141 0.156242 14.027 0.0738993 14.1566 0.0316162C14.2861 -0.0106668 14.4257 -0.0107622 14.5554 0.0313721C14.685 0.0735064 14.7979 0.155725 14.8779 0.266113C14.9578 0.376502 15.0007 0.510366 15.0003 0.646667Z" fill="#131414"/>
</svg>
