<svg width="43" height="59" viewBox="0 0 43 59" fill="none" xmlns="http://www.w3.org/2000/svg">
<path d="M29.8143 18.9031H33.3893" stroke="#FAF9F6" stroke-width="1.5" stroke-linecap="round" stroke-linejoin="round"/>
<path d="M29.8143 14.449H33.3893" stroke="#FAF9F6" stroke-width="1.5" stroke-linecap="round" stroke-linejoin="round"/>
<path d="M29.8143 23.3569H33.3893" stroke="#FAF9F6" stroke-width="1.5" stroke-linecap="round" stroke-linejoin="round"/>
<path d="M29.8143 27.811H33.3893" stroke="#FAF9F6" stroke-width="1.5" stroke-linecap="round" stroke-linejoin="round"/>
<path d="M29.8143 32.2651H33.3893" stroke="#FAF9F6" stroke-width="1.5" stroke-linecap="round" stroke-linejoin="round"/>
<path d="M39.0833 37.0241C38.5133 36.2945 38.2041 35.3949 38.2053 34.4691V9.94908C38.2326 7.73457 37.4502 5.58633 36.0052 3.90802C34.5602 2.22971 32.552 1.13689 30.358 0.834899C28.164 0.532911 25.9353 1.04255 24.0906 2.26805C22.2459 3.49355 20.9123 5.35055 20.3403 7.49008C22.3758 8.6493 24.0633 10.3332 25.227 12.3662C26.3906 14.3993 26.9878 16.7072 26.9564 19.0495C26.9249 21.3918 26.266 23.6828 25.0482 25.6839C23.8303 27.685 22.0982 29.3229 20.0323 30.4271V34.4641C20.0375 35.3836 19.7327 36.278 19.1673 37.0031C17.6988 38.8694 16.7849 41.1111 16.5299 43.4722C16.2749 45.8332 16.6892 48.2184 17.7253 50.3552C18.7615 52.492 20.3777 54.2943 22.3895 55.5562C24.4012 56.8181 26.7273 57.4887 29.1021 57.4915C31.4769 57.4942 33.8045 56.8289 35.8192 55.5717C37.8339 54.3144 39.4543 52.5159 40.4954 50.3815C41.5364 48.2471 41.9562 45.8629 41.7067 43.5012C41.4571 41.1396 40.5484 38.8958 39.0843 37.0261L39.0833 37.0241Z" stroke="#FAF9F6" stroke-width="1.5" stroke-linecap="round" stroke-linejoin="round"/>
<path d="M33.5593 39.5109C33.2222 39.2324 32.9505 38.8831 32.7633 38.4879C32.5762 38.0927 32.4782 37.6612 32.4763 37.2239V18.8669H26.9523C26.9547 20.7544 26.5477 22.62 25.7593 24.3349V37.2229C25.7622 37.6524 25.6703 38.0773 25.4899 38.4671C25.3096 38.8569 25.0455 39.2021 24.7163 39.4779C23.6152 40.3835 22.8202 41.6066 22.4397 42.9805C22.0592 44.3544 22.1118 45.8122 22.5902 47.1551C23.0687 48.4981 23.9497 49.6607 25.1132 50.4846C26.2766 51.3084 27.6659 51.7533 29.0915 51.7587C30.5171 51.764 31.9096 51.3294 33.0792 50.5143C34.2488 49.6992 35.1385 48.5431 35.627 47.2038C36.1154 45.8645 36.1789 44.4071 35.8086 43.0304C35.4384 41.6537 34.6526 40.4246 33.5583 39.5109H33.5593Z" stroke="#FAF9F6" stroke-width="1.5" stroke-linecap="round" stroke-linejoin="round"/>
<path d="M15.9633 31.8021C19.2208 31.2696 22.1572 29.5271 24.1853 26.923C26.2135 24.3189 27.1838 21.0451 26.9023 17.7565C26.6208 14.4678 25.1082 11.4066 22.667 9.185C20.2258 6.96344 17.036 5.7453 13.7354 5.77418C10.4348 5.80306 7.26678 7.07683 4.86484 9.34077C2.4629 11.6047 1.00411 14.6919 0.780197 17.985C0.556287 21.2781 1.58376 24.5344 3.65715 27.1026C5.73054 29.6708 8.697 31.3617 11.9633 31.8371" stroke="#FAF9F6" stroke-width="1.5" stroke-linecap="round" stroke-linejoin="round"/>
<path d="M32.4763 11.9471V9.83407C32.4763 8.94348 32.1225 8.08936 31.4928 7.45961C30.863 6.82986 30.0089 6.47607 29.1183 6.47607C28.2277 6.47607 27.3736 6.82986 26.7438 7.45961C26.1141 8.08936 25.7603 8.94348 25.7603 9.83407V13.4081C26.5451 15.1226 26.9513 16.986 26.9513 18.8716C26.9513 20.7571 26.5451 22.6206 25.7603 24.3351V37.2231C25.7633 37.6526 25.6713 38.0774 25.491 38.4672C25.3107 38.857 25.0465 39.2022 24.7173 39.4781C23.6162 40.3836 22.8212 41.6067 22.4407 42.9806C22.0602 44.3545 22.1128 45.8123 22.5913 47.1553C23.0697 48.4982 23.9507 49.6609 25.1142 50.4847C26.2777 51.3086 27.6669 51.7535 29.0925 51.7588C30.5181 51.7641 31.9107 51.3296 33.0803 50.5144C34.2499 49.6993 35.1395 48.5432 35.628 47.2039C36.1164 45.8646 36.1799 44.4072 35.8097 43.0305C35.4395 41.6538 34.6536 40.4248 33.5593 39.5111C33.2222 39.2325 32.9505 38.8833 32.7634 38.4881C32.5762 38.0929 32.4782 37.6613 32.4763 37.2241V15.9431" stroke="#FAF9F6" stroke-width="1.5" stroke-linecap="round" stroke-linejoin="round"/>
<path d="M12.8043 22.094H8.34526C8.34526 22.094 11.4123 18.72 11.7193 18.319C11.9258 18.0901 12.0843 17.8223 12.1856 17.5312C12.2869 17.24 12.3289 16.9316 12.309 16.624C12.2892 16.3164 12.2079 16.0159 12.07 15.7403C11.9322 15.4646 11.7405 15.2193 11.5063 15.0189C9.97326 13.7029 8.10626 16.01 8.10626 16.01" stroke="#FAF9F6" stroke-width="1.5" stroke-linecap="round" stroke-linejoin="round"/>
<path d="M15.5413 16.644L19.8123 22.094" stroke="#FAF9F6" stroke-width="1.5" stroke-linecap="round" stroke-linejoin="round"/>
<path d="M19.8123 16.644L15.5413 22.094" stroke="#FAF9F6" stroke-width="1.5" stroke-linecap="round" stroke-linejoin="round"/>
</svg>
