<svg width="111" height="111" viewBox="0 0 111 111" fill="none" xmlns="http://www.w3.org/2000/svg">
<path d="M82.827 16.3499C82.8531 15.694 82.743 15.0397 82.5039 14.4283C82.2648 13.8169 81.9017 13.2617 81.4375 12.7975C80.9733 12.3333 80.418 11.9702 79.8066 11.731C79.1952 11.4919 78.541 11.3819 77.885 11.4079" stroke="#FAF9F6" stroke-width="3" stroke-linecap="round" stroke-linejoin="round"/>
<path d="M28.365 65.869L11.848 82.386" stroke="#FAF9F6" stroke-width="3" stroke-linecap="round" stroke-linejoin="round"/>
<path d="M40.616 20.046L43.385 17.277C43.9658 16.6957 44.292 15.9076 44.292 15.086C44.292 14.2643 43.9658 13.4762 43.385 12.895L40.014 9.52297C39.4328 8.94223 38.6447 8.61603 37.823 8.61603C37.0014 8.61603 36.2133 8.94223 35.632 9.52297L28.548 16.607L40.616 20.046Z" stroke="#FAF9F6" stroke-width="3" stroke-linecap="round" stroke-linejoin="round"/>
<path d="M39.31 41.8719L54.903 24.1179L15.768 12.9639C15.1123 12.7769 14.4186 12.7685 13.7586 12.9396C13.0986 13.1106 12.4963 13.455 12.014 13.9369L8.40401 17.5469C8.16751 17.7834 7.98607 18.069 7.87265 18.3836C7.75923 18.6982 7.71662 19.0339 7.74785 19.3668C7.77908 19.6998 7.88339 20.0217 8.05333 20.3097C8.22327 20.5977 8.45467 20.8447 8.73101 21.0329L39.31 41.8719Z" stroke="#FAF9F6" stroke-width="3" stroke-linecap="round" stroke-linejoin="round"/>
<path d="M13.081 71.9709C13.3149 71.55 13.5928 71.1551 13.91 70.7929L22.971 60.4759L4.75503 59.5869C4.10221 59.5543 3.46104 59.7687 2.9592 60.1875C2.45737 60.6063 2.13169 61.1988 2.04703 61.8469L1.52203 65.8339C1.44392 66.4302 1.57492 67.0351 1.89273 67.5457C2.21054 68.0562 2.69551 68.4408 3.26503 68.6339L13.081 71.9709Z" stroke="#FAF9F6" stroke-width="3" stroke-linecap="round" stroke-linejoin="round"/>
<path d="M22.265 81.1539C22.6856 80.92 23.0801 80.6421 23.442 80.3249L33.759 71.2639L34.649 89.4829C34.6817 90.1357 34.4672 90.7769 34.0484 91.2787C33.6296 91.7806 33.0371 92.1063 32.389 92.1909L28.402 92.7159C27.8057 92.794 27.2008 92.663 26.6903 92.3452C26.1797 92.0274 25.7951 91.5424 25.602 90.9729L22.265 81.1539Z" stroke="#FAF9F6" stroke-width="3" stroke-linecap="round" stroke-linejoin="round"/>
<path d="M75.893 57.8149V81.7259C75.8931 81.8451 75.9262 81.9618 75.9885 82.0633C76.0509 82.1648 76.1402 82.247 76.2464 82.3008C76.3527 82.3547 76.4717 82.378 76.5905 82.3684C76.7092 82.3587 76.8229 82.3163 76.919 82.2459L78.445 81.1309C78.76 80.9004 79.1402 80.7762 79.5305 80.7762C79.9208 80.7762 80.301 80.9004 80.616 81.1309L82.083 82.2029C82.3982 82.433 82.7783 82.557 83.1685 82.557C83.5587 82.557 83.9388 82.433 84.254 82.2029L85.722 81.1299C86.037 80.8999 86.417 80.776 86.807 80.776C87.197 80.776 87.577 80.8999 87.892 81.1299L89.419 82.2459C89.515 82.3162 89.6287 82.3586 89.7473 82.3683C89.8659 82.3781 89.9849 82.3548 90.0911 82.3011C90.1974 82.2473 90.2866 82.1653 90.3491 82.0639C90.4115 81.9626 90.4447 81.846 90.445 81.7269V57.8149H75.893Z" stroke="#FAF9F6" stroke-width="3" stroke-linecap="round" stroke-linejoin="round"/>
<path d="M90.444 89.5859H100.831" stroke="#FAF9F6" stroke-width="3" stroke-linecap="round" stroke-linejoin="round"/>
<path d="M90.444 95.322H100.831" stroke="#FAF9F6" stroke-width="3" stroke-linecap="round" stroke-linejoin="round"/>
<path d="M90.444 101.059H100.831" stroke="#FAF9F6" stroke-width="3" stroke-linecap="round" stroke-linejoin="round"/>
<path d="M85.282 57.8152C85.5776 57.2325 85.6815 56.5714 85.579 55.9261C85.4764 55.2809 85.1727 54.6845 84.711 54.2222L81.339 50.8502C80.7577 50.2692 79.9694 49.9427 79.1475 49.9427C78.3256 49.9427 77.5373 50.2692 76.956 50.8502L74.188 53.6192L75.388 57.8192L85.282 57.8152Z" stroke="#FAF9F6" stroke-width="3" stroke-linecap="round" stroke-linejoin="round"/>
<path d="M57.8091 60.597C57.8091 59.8589 58.1023 59.151 58.6242 58.6291C59.1461 58.1072 59.854 57.814 60.5921 57.814H75.3841L70.1161 39.33L52.3621 54.924L57.8091 62.917V60.597Z" stroke="#FAF9F6" stroke-width="3" stroke-linecap="round" stroke-linejoin="round"/>
<path d="M44.496 61.8339L83.439 27.6339C86.2261 25.1863 88.4865 22.1975 90.0828 18.8493C91.6791 15.5011 92.5781 11.8633 92.725 8.15693C92.7605 7.2744 92.6129 6.39408 92.2915 5.57137C91.9702 4.74867 91.482 4.00139 90.8577 3.37656C90.2335 2.75173 89.4866 2.26288 88.6642 1.94077C87.8418 1.61866 86.9616 1.47027 86.079 1.50493C82.3727 1.65316 78.7352 2.55318 75.3874 4.15034C72.0395 5.7475 69.0513 8.00847 66.604 10.7959L13.904 70.7959C12.7718 72.0852 12.1726 73.757 12.2281 75.472C12.2836 77.187 12.9897 78.8166 14.203 80.0299C15.4164 81.2432 17.0459 81.9493 18.7609 82.0049C20.4759 82.0604 22.1478 81.4612 23.437 80.3289L38.833 66.8049" stroke="#FAF9F6" stroke-width="3" stroke-linecap="round" stroke-linejoin="round"/>
<path d="M108.528 73.303V60.6029C108.528 59.8648 108.235 59.157 107.713 58.6351C107.191 58.1132 106.483 57.8199 105.745 57.8199H60.5981C60.2322 57.8194 59.8698 57.891 59.5317 58.0306C59.1935 58.1702 58.8862 58.3751 58.6272 58.6336C58.3683 58.8921 58.1629 59.199 58.0226 59.5369C57.8824 59.8749 57.8102 60.2371 57.8101 60.6029V105.753C57.8103 106.491 58.1038 107.199 58.6258 107.721C59.1479 108.243 59.8559 108.536 60.5941 108.536H105.744C106.482 108.536 107.19 108.243 107.712 107.721C108.234 107.199 108.527 106.491 108.527 105.753V80.8389" stroke="#FAF9F6" stroke-width="3" stroke-linecap="round" stroke-linejoin="round"/>
</svg>
