<svg width="91" height="111" viewBox="0 0 91 111" fill="none" xmlns="http://www.w3.org/2000/svg">
<path d="M47.6172 2.19867L55.3932 6.69867L64.4292 6.68867C65.3195 6.6881 66.1932 6.92976 66.9567 7.38778C67.7202 7.84579 68.3446 8.50288 68.7632 9.28867L73.1912 16.9887L81.0312 21.4987C81.7797 21.928 82.4016 22.5474 82.8339 23.2942C83.2662 24.041 83.4937 24.8888 83.4932 25.7517L83.4792 34.7887L88.0202 42.6267C88.4601 43.3857 88.6888 44.2488 88.6824 45.1261C88.6761 46.0034 88.435 46.863 87.9842 47.6157L83.4792 55.3917L83.4932 64.4287C83.4938 65.319 83.2521 66.1927 82.7941 66.9561C82.3361 67.7196 81.679 68.3441 80.8932 68.7627L73.1932 73.1907L68.6842 81.0297C68.2549 81.7782 67.6355 82.4001 66.8886 82.8324C66.1418 83.2647 65.2941 83.4921 64.4312 83.4917L55.3942 83.4767L47.5562 88.0177C46.7972 88.4578 45.9342 88.6866 45.0568 88.6802C44.1794 88.6739 43.3198 88.4327 42.5672 87.9817L34.7912 83.4767L25.7542 83.4917C24.8639 83.4921 23.9903 83.2504 23.2268 82.7924C22.4634 82.3344 21.8389 81.6774 21.4202 80.8917L16.9922 73.1917L9.1532 68.6827C8.40435 68.2534 7.78219 67.6339 7.34968 66.8869C6.91717 66.1398 6.68967 65.2918 6.6902 64.4287L6.6992 55.3927L2.1622 47.5547C1.72224 46.7956 1.49363 45.9325 1.50014 45.0551C1.50664 44.1778 1.74803 43.3182 2.1992 42.5657L6.6992 34.7897L6.6892 25.7537C6.68874 24.8634 6.93045 23.9897 7.38845 23.2263C7.84645 22.4628 8.50349 21.8383 9.2892 21.4197L16.9892 16.9917L21.4992 9.15267C21.9284 8.40396 22.5478 7.78189 23.2946 7.3494C24.0414 6.9169 24.8892 6.68931 25.7522 6.68967L34.7892 6.70367L42.6272 2.16267C43.3864 1.72257 44.2496 1.4938 45.1271 1.50013C46.0046 1.50646 46.8644 1.74766 47.6172 2.19867Z" stroke="#FAF9F6" stroke-width="3" stroke-linecap="round" stroke-linejoin="round"/>
<path d="M33.9202 83.4807L19.3382 108.737L15.0012 97.1827L2.82721 99.2027L17.4172 73.9327" stroke="#FAF9F6" stroke-width="3" stroke-linecap="round" stroke-linejoin="round"/>
<path d="M75.1572 78.0747L72.7672 73.9337M56.2672 83.4817L70.8492 108.738L75.1772 97.1827L87.3522 99.2027L84.9602 95.0627" stroke="#FAF9F6" stroke-width="3" stroke-linecap="round" stroke-linejoin="round"/>
<path d="M32.3242 18.4537C38.6058 15.4452 45.749 14.7552 52.4904 16.5056C59.2317 18.2561 65.1368 22.3343 69.1612 28.0188C73.1856 33.7034 75.07 40.628 74.481 47.568C73.8921 54.5079 70.8678 61.016 65.943 65.9411C61.0183 70.8662 54.5104 73.891 47.5705 74.4804C40.6306 75.0699 33.7058 73.186 28.021 69.162C22.3361 65.138 18.2576 59.2332 16.5066 52.492C14.7557 45.7508 15.4452 38.6075 18.4532 32.3257" stroke="#FAF9F6" stroke-width="3" stroke-linecap="round" stroke-linejoin="round"/>
<path d="M45.0912 30.8917L50.0482 39.7637L60.0212 41.7347L53.1122 49.1917L54.3192 59.2867L45.0922 55.0197L35.8652 59.2867L37.0722 49.1917L30.1632 41.7347L40.1332 39.7637L45.0912 30.8917Z" stroke="#FAF9F6" stroke-width="3" stroke-linecap="round" stroke-linejoin="round"/>
<path d="M24.2072 24.2097L24.2082 24.2087" stroke="#FAF9F6" stroke-width="3" stroke-linecap="round" stroke-linejoin="round"/>
<path d="M80.0592 86.5677L80.0602 86.5687" stroke="#FAF9F6" stroke-width="3" stroke-linecap="round" stroke-linejoin="round"/>
</svg>
