<svg width="55" height="55" viewBox="0 0 55 55" fill="none" xmlns="http://www.w3.org/2000/svg">
<path d="M19.773 53.2745C30.2791 53.2745 38.796 44.7576 38.796 34.2515C38.796 23.7454 30.2791 15.2285 19.773 15.2285C9.26689 15.2285 0.75 23.7454 0.75 34.2515C0.75 44.7576 9.26689 53.2745 19.773 53.2745Z" stroke="#FAF9F6" stroke-width="1.5" stroke-linecap="round" stroke-linejoin="round"/>
<path d="M15.673 15.6726C16.4084 12.3416 18.0259 9.26966 20.3562 6.77842C22.6864 4.28717 25.6437 2.46832 28.9182 1.51233C32.1927 0.55635 35.664 0.498411 38.9686 1.34458C42.2732 2.19076 45.2895 3.90991 47.7016 6.322C50.1137 8.73409 51.8329 11.7504 52.679 15.055C53.5252 18.3596 53.4673 21.8309 52.5113 25.1054C51.5553 28.3799 49.7364 31.3372 47.2452 33.6674C44.7539 35.9977 41.682 37.6152 38.351 38.3506" stroke="#FAF9F6" stroke-width="1.5" stroke-linecap="round" stroke-linejoin="round"/>
<path d="M43.282 9.55762H44.467V21.4446H39.71V17.6756L24.018 33.3686H27.789V38.1246H23.825M19.069 38.1246H15.899V26.2356H20.655V30.0066L36.348 14.3126H32.577V9.55762H39.71" stroke="#FAF9F6" stroke-width="1.5" stroke-linecap="round" stroke-linejoin="round"/>
</svg>
