<svg width="41" height="41" viewBox="0 0 41 41" fill="none" xmlns="http://www.w3.org/2000/svg">
<path d="M24.2115 32.4824C19.8747 32.4928 15.7103 30.7849 12.6295 27.7324L12.4875 27.5984C9.48039 24.5483 7.80589 20.4299 7.83138 16.1468C7.85688 11.8636 9.58029 7.7655 12.6235 4.75142C15.7098 1.70691 19.8708 0 24.206 0C28.5413 0 32.7022 1.70691 35.7885 4.75142L35.9275 4.88942C38.9339 7.9397 40.6076 12.0579 40.5816 16.3407C40.5555 20.6234 38.8318 24.7209 35.7885 27.7344C32.7087 30.7849 28.5464 32.492 24.2115 32.4824ZM24.2115 1.87142C20.3691 1.86072 16.6791 3.37396 13.9505 6.07942L13.8265 6.20642C12.5076 7.54053 11.4646 9.12147 10.7569 10.8589C10.0493 12.5963 9.69104 14.4562 9.70255 16.3321C9.71407 18.2081 10.0952 20.0634 10.8241 21.792C11.5529 23.5206 12.6153 25.0886 13.9505 26.4064C16.683 29.1044 20.3685 30.6173 24.2085 30.6173C28.0486 30.6173 31.734 29.1044 34.4665 26.4064L34.5905 26.2804C35.9092 24.9462 36.952 23.3652 37.6595 21.6278C38.367 19.8904 38.7252 18.0306 38.7137 16.1547C38.7022 14.2788 38.3211 12.4236 37.5924 10.695C36.8637 8.96643 35.8015 7.39837 34.4665 6.08042C31.7396 3.37606 28.0521 1.86258 24.2115 1.87142Z" fill="#131414"/>
<path d="M0.941525 40.2316C0.750203 40.2319 0.563341 40.1738 0.405902 40.0651C0.248463 39.9564 0.127944 39.8022 0.0604447 39.6232C-0.0070546 39.4442 -0.0183201 39.2488 0.0281533 39.0632C0.0746267 38.8776 0.176626 38.7107 0.320525 38.5846L10.3025 28.6846C10.5315 28.9456 10.7505 29.1846 10.9715 29.4046C11.1925 29.6246 11.4065 29.8156 11.6285 30.0136L1.65553 39.8996C1.46985 40.0993 1.21298 40.2179 0.940525 40.2296L0.941525 40.2316Z" fill="#131414"/>
</svg>
