<svg width="26" height="26" viewBox="0 0 26 26" fill="none" xmlns="http://www.w3.org/2000/svg">
<path d="M10.154 11.8884C9.85306 11.5877 9.66568 11.1919 9.62381 10.7685C9.58194 10.3451 9.68819 9.92029 9.92443 9.56643C10.1607 9.21258 10.5123 8.95159 10.9194 8.82794C11.3265 8.70428 11.7639 8.72562 12.1571 8.8883C12.5502 9.05099 12.8748 9.34496 13.0755 9.72013C13.2761 10.0953 13.3405 10.5284 13.2577 10.9458C13.1748 11.3631 12.9498 11.7388 12.621 12.0088C12.2921 12.2788 11.8799 12.4264 11.4544 12.4266C11.2128 12.4273 10.9735 12.3801 10.7503 12.2877C10.5271 12.1954 10.3245 12.0597 10.154 11.8884ZM12.1049 9.93754C12.0194 9.85137 11.9178 9.78288 11.8058 9.736C11.6938 9.68911 11.5737 9.66475 11.4523 9.66429C11.2071 9.66336 10.9715 9.75987 10.7975 9.93259C10.6235 10.1053 10.5252 10.3401 10.5243 10.5853C10.5233 10.8305 10.6198 11.066 10.7926 11.24C10.8779 11.3259 10.9793 11.3942 11.091 11.4409C11.2027 11.4876 11.3226 11.5118 11.4436 11.5122C11.5647 11.5126 11.6847 11.4891 11.7967 11.4432C11.9087 11.3972 12.0106 11.3296 12.0965 11.2443C12.1824 11.1589 12.2506 11.0575 12.2973 10.9458C12.344 10.8341 12.3682 10.7143 12.3686 10.5932C12.369 10.4721 12.3456 10.3522 12.2996 10.2401C12.2536 10.1281 12.186 10.0263 12.1007 9.94037L12.1049 9.93754Z" fill="#FAF9F6"/>
<path d="M10.1703 19.7863C9.82394 19.4437 9.62786 18.9775 9.62521 18.4903C9.62255 18.0031 9.81355 17.5347 10.1562 17.1884C10.4988 16.842 10.965 16.6459 11.4522 16.6433C11.9394 16.6406 12.4077 16.8316 12.7541 17.1742C13.01 17.4316 13.1842 17.759 13.2545 18.1151C13.3249 18.4712 13.2883 18.8401 13.1494 19.1755C13.0106 19.5109 12.7756 19.7977 12.4742 19.9999C12.1727 20.2021 11.8181 20.3105 11.4551 20.3117C11.2169 20.3147 10.9804 20.2698 10.7598 20.1796C10.5392 20.0895 10.339 19.956 10.171 19.787L10.1703 19.7863ZM12.1064 17.8219C11.9556 17.6707 11.757 17.5765 11.5445 17.5552C11.332 17.534 11.1187 17.5871 10.941 17.7055C10.7633 17.8239 10.6321 18.0003 10.5699 18.2046C10.5076 18.4089 10.5181 18.6284 10.5996 18.8258C10.6811 19.0232 10.8285 19.1863 11.0167 19.2872C11.205 19.3881 11.4223 19.4206 11.6318 19.3791C11.8413 19.3377 12.03 19.2249 12.1657 19.06C12.3013 18.895 12.3756 18.6882 12.3758 18.4746C12.3764 18.3534 12.3529 18.2332 12.3067 18.1212C12.2604 18.0092 12.1923 17.9074 12.1064 17.8219Z" fill="#FAF9F6"/>
<path d="M7.39279 14.8549C7.32814 14.7909 7.28425 14.7089 7.26685 14.6196C7.24944 14.5303 7.25933 14.4379 7.29521 14.3543C7.3283 14.2692 7.38678 14.1965 7.46269 14.1459C7.53861 14.0953 7.62827 14.0693 7.71948 14.0714L15.2827 14.0714C15.4042 14.0714 15.5208 14.1197 15.6067 14.2056C15.6926 14.2916 15.7409 14.4081 15.7409 14.5296C15.7409 14.6512 15.6926 14.7677 15.6067 14.8536C15.5208 14.9396 15.4042 14.9878 15.2827 14.9878L7.71523 14.9892C7.65513 14.9891 7.59563 14.9772 7.54018 14.954C7.48472 14.9308 7.4351 14.8976 7.39279 14.8549Z" fill="#FAF9F6"/>
<path d="M2.19769 17.3898C1.6173 16.8094 1.29078 16.0226 1.28971 15.2018C1.28865 14.381 1.61315 13.5933 2.19203 13.0114L10.6702 4.53322C10.9909 4.21387 11.3822 3.97454 11.8125 3.83462C12.2429 3.69469 12.7001 3.65811 13.1472 3.72782L19.1852 4.6803C19.7216 4.76286 20.2177 5.01429 20.6015 5.39805C20.9853 5.78182 21.2367 6.27794 21.3193 6.81434L22.2576 12.8438C22.3264 13.2902 22.2893 13.7466 22.1493 14.176C22.0093 14.6054 21.7702 14.9959 21.4515 15.3159L12.974 23.7934C12.6861 24.0813 12.3444 24.3096 11.9683 24.4654C11.5922 24.6212 11.1891 24.7014 10.782 24.7014C10.3749 24.7014 9.97176 24.6212 9.59565 24.4654C9.21954 24.3096 8.87779 24.0813 8.58993 23.7934L2.19769 17.3898ZM19.9517 6.04643C19.7056 5.79991 19.3873 5.63819 19.0431 5.58468L13.0037 4.63221C12.6996 4.58553 12.3887 4.61113 12.0964 4.70695C11.804 4.80278 11.5383 4.96612 11.3208 5.18376L2.84257 13.662C2.43571 14.0714 2.20759 14.6254 2.20813 15.2026C2.20866 15.7799 2.43779 16.3334 2.8454 16.7421L9.24754 23.1443C9.6564 23.5513 10.2097 23.7799 10.7866 23.7801C11.3635 23.7804 11.9171 23.5523 12.3263 23.1457L20.8052 14.6668C21.0225 14.4494 21.1856 14.1839 21.2811 13.8917C21.3767 13.5996 21.4021 13.2891 21.3553 12.9853L20.4113 6.95435C20.3588 6.61048 20.1977 6.29239 19.9517 6.04643Z" fill="#FAF9F6"/>
<path d="M17.626 8.40325C17.8197 8.59695 18.1338 8.59695 18.3275 8.40325C18.5212 8.20955 18.5212 7.8955 18.3275 7.7018C18.1338 7.5081 17.8197 7.5081 17.626 7.7018C17.4323 7.8955 17.4323 8.20955 17.626 8.40325Z" fill="#FAF9F6"/>
</svg>
