<svg width="172" height="172" viewBox="0 0 172 172" fill="none" xmlns="http://www.w3.org/2000/svg">
<path d="M86 172C133.496 172 172 133.496 172 86C172 38.5035 133.496 0 86 0C38.5035 0 0 38.5035 0 86C0 133.496 38.5035 172 86 172Z" fill="url(#paint0_radial_4_140)"/>
<path d="M86 170.5C132.668 170.5 170.5 132.668 170.5 86C170.5 39.3319 132.668 1.5 86 1.5C39.3319 1.5 1.5 39.3319 1.5 86C1.5 132.668 39.3319 170.5 86 170.5Z" stroke="#FAF9F6" stroke-width="3"/>
<path d="M52.271 91.1321V81.5321C52.271 79.7551 52.9769 78.0509 54.2334 76.7945C55.4899 75.538 57.194 74.8321 58.971 74.8321C60.7479 74.8321 62.4521 75.538 63.7086 76.7945C64.9651 78.0509 65.671 79.7551 65.671 81.5321V44.6891C65.671 42.9121 66.3769 41.2079 67.6334 39.9515C68.8899 38.695 70.594 37.9891 72.371 37.9891C74.1479 37.9891 75.8521 38.695 77.1086 39.9515C78.3651 41.2079 79.071 42.9121 79.071 44.6891V34.6451C79.071 32.8681 79.7769 31.1639 81.0334 29.9075C82.2899 28.651 83.994 27.9451 85.771 27.9451C87.5479 27.9451 89.2521 28.651 90.5086 29.9075C91.7651 31.1639 92.471 32.8681 92.471 34.6451V44.6891C92.471 42.9121 93.1769 41.2079 94.4334 39.9515C95.6899 38.695 97.394 37.9891 99.171 37.9891C100.948 37.9891 102.652 38.695 103.909 39.9515C105.165 41.2079 105.871 42.9121 105.871 44.6891V54.7381C105.871 52.9611 106.577 51.2569 107.833 50.0005C109.09 48.744 110.794 48.0381 112.571 48.0381C114.348 48.0381 116.052 48.744 117.309 50.0005C118.565 51.2569 119.271 52.9611 119.271 54.7381V59.8381" stroke="#FAF9F6" stroke-width="3" stroke-linecap="round" stroke-linejoin="round"/>
<path d="M119.253 68.032V111.72C119.253 113.911 118.984 116.094 118.453 118.22L115.903 128.42V144.307H62.319V128.583L57.534 122.124C54.1158 117.509 52.2708 111.919 52.271 106.176V99.326" stroke="#FAF9F6" stroke-width="3" stroke-linecap="round" stroke-linejoin="round"/>
<path d="M79.064 44.6899V73.1329" stroke="#FAF9F6" stroke-width="3" stroke-linecap="round" stroke-linejoin="round"/>
<path d="M92.46 44.6899V73.1329" stroke="#FAF9F6" stroke-width="3" stroke-linecap="round" stroke-linejoin="round"/>
<path d="M105.856 54.7371V73.1331" stroke="#FAF9F6" stroke-width="3" stroke-linecap="round" stroke-linejoin="round"/>
<path d="M65.667 81.5281V95.8021L75.783 98.6161C76.083 98.7011 76.383 98.7961 76.683 98.8991" stroke="#FAF9F6" stroke-width="3" stroke-linecap="round" stroke-linejoin="round"/>
<path d="M100.198 93.4591C104.143 98.8791 107.758 105.043 107.758 109.435C107.758 114.076 105.914 118.528 102.632 121.809C99.3505 125.091 94.8993 126.935 90.258 126.935C85.6167 126.935 81.1655 125.091 77.8836 121.809C74.6017 118.528 72.758 114.076 72.758 109.435C72.758 99.7711 90.258 81.5281 90.258 81.5281C90.258 81.5281 92.374 83.7351 95.137 87.0201" stroke="#FAF9F6" stroke-width="3" stroke-linecap="round" stroke-linejoin="round"/>
<path d="M99.715 105.652H94.039V99.9761H86.471V105.652H80.795V113.22H86.471V118.896H94.039V113.22H99.715V105.652Z" stroke="#FAF9F6" stroke-width="3" stroke-linecap="round" stroke-linejoin="round"/>
<defs>
<radialGradient id="paint0_radial_4_140" cx="0" cy="0" r="1" gradientUnits="userSpaceOnUse" gradientTransform="translate(86 86) scale(86)">
<stop stop-color="white" stop-opacity="0"/>
<stop offset="1" stop-color="white" stop-opacity="0.141"/>
</radialGradient>
</defs>
</svg>
