<svg width="172" height="172" viewBox="0 0 172 172" fill="none" xmlns="http://www.w3.org/2000/svg">
<path d="M86 172C133.496 172 172 133.496 172 86C172 38.5035 133.496 0 86 0C38.5035 0 0 38.5035 0 86C0 133.496 38.5035 172 86 172Z" fill="url(#paint0_radial_4_121)"/>
<path d="M86 170.5C132.668 170.5 170.5 132.668 170.5 86C170.5 39.3319 132.668 1.5 86 1.5C39.3319 1.5 1.5 39.3319 1.5 86C1.5 132.668 39.3319 170.5 86 170.5Z" stroke="#FAF9F6" stroke-width="3"/>
<path d="M52.857 101.745C55.7537 111.788 57.2294 122.187 57.241 132.639V139.876H107.006V128.176H115.534C118.761 128.176 121.855 126.894 124.137 124.613C126.419 122.331 127.701 119.237 127.701 116.01V104.955L136.568 101.12C136.833 101.005 137.073 100.839 137.273 100.63C137.472 100.422 137.629 100.176 137.732 99.9058C137.835 99.636 137.883 99.3484 137.874 99.0597C137.864 98.771 137.797 98.4872 137.676 98.2249L131.765 85.3919C129.975 81.5057 129.048 77.2777 129.048 72.9989C129.048 67.5548 127.959 62.1657 125.846 57.1486C123.732 52.1315 120.637 47.5877 116.742 43.7845C112.846 39.9813 108.23 36.9956 103.163 35.0028C98.0971 33.0101 92.6835 32.0506 87.241 32.1809C83.8498 32.2586 80.4826 32.7715 77.222 33.7069" stroke="#FAF9F6" stroke-width="3" stroke-linecap="round" stroke-linejoin="round"/>
<path d="M119.434 79.5139C118.233 80.7148 116.604 81.3894 114.906 81.3894C113.207 81.3894 111.578 80.7148 110.377 79.5139" stroke="#FAF9F6" stroke-width="3" stroke-linecap="round" stroke-linejoin="round"/>
<path d="M127.757 109.008C126.911 109.854 125.907 110.525 124.801 110.983C123.696 111.441 122.511 111.677 121.315 111.677C120.119 111.677 118.934 111.441 117.829 110.983C116.723 110.525 115.719 109.854 114.873 109.008" stroke="#FAF9F6" stroke-width="3" stroke-linecap="round" stroke-linejoin="round"/>
<path d="M46.895 37.7131C54.2207 33.0899 62.9722 31.2747 71.5323 32.6028C80.0925 33.9308 87.8825 38.3125 93.4631 44.9379C99.0436 51.5634 102.037 59.9849 101.891 68.6462C101.745 77.3075 98.4686 85.6231 92.6676 92.0564C86.8666 98.4897 78.933 102.606 70.3329 103.644C61.7329 104.683 53.0476 102.573 45.8821 97.7052C38.7167 92.8374 33.5553 85.5405 31.3518 77.1629C29.1484 68.7854 30.0517 59.8933 33.895 52.1301" stroke="#FAF9F6" stroke-width="3" stroke-linecap="round" stroke-linejoin="round"/>
<path d="M66.071 95.217C62.4712 95.217 59.0189 93.787 56.4734 91.2416C53.928 88.6962 52.498 85.2438 52.498 81.6441C52.498 78.0443 53.928 74.5919 56.4734 72.0465C59.0189 69.5011 62.4712 68.071 66.071 68.071C69.6708 68.071 73.1231 66.641 75.6685 64.0956C78.214 61.5502 79.644 58.0978 79.644 54.498C79.644 50.8983 78.214 47.4459 75.6685 44.9005C73.1231 42.3551 69.6708 40.925 66.071 40.925" stroke="#FAF9F6" stroke-width="3" stroke-linecap="round" stroke-linejoin="round"/>
<path d="M66.071 50.1201C66.9368 50.1203 67.7831 50.3772 68.5029 50.8584C69.2227 51.3395 69.7837 52.0233 70.1149 52.8232C70.4462 53.6231 70.5328 54.5033 70.3638 55.3525C70.1949 56.2016 69.7779 56.9816 69.1657 57.5938C68.5535 58.206 67.7735 58.623 66.9243 58.7919C66.0752 58.9609 65.195 58.8743 64.3951 58.5431C63.5951 58.2118 62.9114 57.6508 62.4302 56.931C61.9491 56.2112 61.6922 55.3649 61.692 54.4991C61.692 53.3377 62.1533 52.2239 62.9746 51.4027C63.7958 50.5815 64.9096 50.1201 66.071 50.1201Z" stroke="#FAF9F6" stroke-width="3" stroke-linecap="round" stroke-linejoin="round"/>
<path d="M66.071 77.2661C66.9368 77.2663 67.7831 77.5232 68.5029 78.0044C69.2227 78.4855 69.7837 79.1693 70.1149 79.9692C70.4462 80.7691 70.5328 81.6493 70.3638 82.4985C70.1949 83.3476 69.7779 84.1276 69.1657 84.7398C68.5535 85.352 67.7735 85.769 66.9243 85.9379C66.0752 86.1069 65.195 86.0203 64.3951 85.689C63.5951 85.3578 62.9114 84.7968 62.4302 84.077C61.9491 83.3572 61.6922 82.5109 61.692 81.6451C61.692 80.4837 62.1533 79.3699 62.9746 78.5487C63.7958 77.7275 64.9096 77.2661 66.071 77.2661Z" stroke="#FAF9F6" stroke-width="3" stroke-linecap="round" stroke-linejoin="round"/>
<path d="M66.071 95.218C81.0633 95.218 93.217 83.0643 93.217 68.072C93.217 53.0797 81.0633 40.926 66.071 40.926C51.0787 40.926 38.925 53.0797 38.925 68.072C38.925 83.0643 51.0787 95.218 66.071 95.218Z" stroke="#FAF9F6" stroke-width="3" stroke-linecap="round" stroke-linejoin="round"/>
<circle cx="39.443" cy="43.991" r="1.5" fill="#FAF9F6"/>
<defs>
<radialGradient id="paint0_radial_4_121" cx="0" cy="0" r="1" gradientUnits="userSpaceOnUse" gradientTransform="translate(86 86) scale(86)">
<stop stop-color="white" stop-opacity="0"/>
<stop offset="1" stop-color="white" stop-opacity="0.141"/>
</radialGradient>
</defs>
</svg>
