<svg width="121" height="98" viewBox="0 0 121 98" fill="none" xmlns="http://www.w3.org/2000/svg">
<path d="M37.577 43.551C37.5237 42.6497 37.497 41.7417 37.497 40.827C37.4952 32.8549 39.593 25.023 43.5795 18.1192C47.566 11.2155 53.3006 5.48349 60.206 1.5C67.1114 5.48364 72.8458 11.2157 76.8323 18.1194C80.8187 25.0231 82.9167 32.855 82.915 40.827C82.915 41.7777 82.886 42.7213 82.828 43.658" stroke="#FAF9F6" stroke-width="3" stroke-linecap="round" stroke-linejoin="round"/>
<path d="M97.188 89.848C91.9326 93.0505 86.0822 95.1536 79.9907 96.0302C73.8992 96.9068 67.6932 96.5386 61.748 94.948C59.6839 87.2482 59.6832 79.1407 61.746 71.4405C63.8087 63.7404 67.8623 56.7189 73.4991 51.0821C79.1359 45.4453 86.1574 41.3917 93.8575 39.329C101.558 37.2662 109.665 37.2669 117.365 39.331C118.955 45.2754 119.323 51.4805 118.446 57.5711C117.57 63.6617 115.467 69.5113 112.265 74.766" stroke="#FAF9F6" stroke-width="3" stroke-linecap="round" stroke-linejoin="round"/>
<path d="M3.04904 39.336C10.7489 37.2716 18.8565 37.2706 26.5569 39.3333C34.2572 41.3959 41.2788 45.4495 46.9157 51.0864C52.5526 56.7233 56.6061 63.7449 58.6688 71.4452C60.7314 79.1455 60.7305 87.2532 58.666 94.953C50.9662 97.0175 42.8585 97.0184 35.1582 94.9558C27.4579 92.8931 20.4363 88.8396 14.7994 83.2027C9.16249 77.5658 5.10894 70.5442 3.04629 62.8438C0.983638 55.1435 0.984587 47.0359 3.04904 39.336Z" stroke="#FAF9F6" stroke-width="3" stroke-linecap="round" stroke-linejoin="round"/>
<path d="M61.748 94.951L88.84 67.859" stroke="#FAF9F6" stroke-width="3" stroke-linecap="round" stroke-linejoin="round"/>
<path d="M58.664 94.951L31.572 67.859" stroke="#FAF9F6" stroke-width="3" stroke-linecap="round" stroke-linejoin="round"/>
<path d="M60.206 45.684V88.864" stroke="#FAF9F6" stroke-width="3" stroke-linecap="round" stroke-linejoin="round"/>
<path d="M105.614 83.211L105.604 83.201" stroke="#FAF9F6" stroke-width="3" stroke-linecap="round" stroke-linejoin="round"/>
</svg>
