<svg width="374" height="86" viewBox="0 0 374 86" fill="none" xmlns="http://www.w3.org/2000/svg">
<path fill-rule="evenodd" clip-rule="evenodd" d="M226.114 39.4594C221.222 31.4404 211.368 31.0814 202.88 33.0144C205.517 30.7723 207.949 28.2987 210.145 25.6234C212.805 22.4794 215.906 18.9454 215.235 14.5804C214.597 10.4284 210.694 4.59036 207.035 2.53536C202.814 0.167359 197.689 1.53536 193.15 0.905359C188.641 0.282359 185.717 -1.23164 181.832 1.97936C173.824 8.59936 175.951 19.8994 179.818 28.4194C177.045 24.9524 172.729 21.8484 169.426 19.6654C165.989 17.3944 162.115 14.7324 157.86 15.9114C153.811 17.0324 148.473 21.5994 146.864 25.4774C145.011 29.9464 146.972 34.8774 146.882 39.4574C146.795 44.0064 145.634 47.0864 149.282 50.5664C155.622 56.6144 164.412 55.1074 171.816 51.5834C168.472 54.6484 165.65 59.4074 163.71 63.0034C161.752 66.6324 159.446 70.7274 161.001 74.8584C162.48 78.7924 167.501 83.7024 171.508 84.9584C176.126 86.4064 180.862 84.0154 185.431 83.6954C189.97 83.3774 193.142 84.2594 196.282 80.3154C200.382 75.1664 200.106 69.0154 197.953 63.2834C198.194 63.5624 198.442 63.8524 198.676 64.1134C201.41 67.1934 204.465 70.7684 208.876 70.7254C213.076 70.6874 219.411 67.6554 221.969 64.3254C224.914 60.4864 224.291 55.2174 225.559 50.8144C226.817 46.4454 228.734 43.7664 226.11 39.4644M185.11 3.44236C189.09 1.62836 190.62 2.83536 194.659 3.12236C197.381 3.31436 200.274 2.75036 202.949 3.34536C207.508 4.35536 211.457 8.97836 212.693 13.4454C214.005 18.1914 210.725 21.9304 207.783 25.2234C205.259 28.0524 201.999 31.6844 198.47 33.2754C196.882 33.9884 195.135 34.2739 193.403 34.1034C192.955 33.7724 192.478 33.4624 191.993 33.1654C192.529 31.6128 193.265 30.1369 194.184 28.7754C195.769 25.9989 197.748 23.4663 200.058 21.2564C201.004 20.3494 199.781 18.6784 198.82 19.5984C196.247 22.0451 194.047 24.8564 192.29 27.9424C191.441 29.2778 190.716 30.688 190.124 32.1554C189.372 31.798 188.591 31.505 187.789 31.2794C187.157 28.9937 187.113 26.5857 187.659 24.2783C188.206 21.9709 189.326 19.8387 190.916 18.0794C191.841 17.1234 190.216 15.8444 189.296 16.7934C187.608 18.6886 186.392 20.9567 185.749 23.412C185.106 25.8672 185.054 28.4399 185.596 30.9194C185.121 30.9053 184.645 30.95 184.181 31.0524L183.74 30.8604C183.595 30.7991 183.438 30.7701 183.281 30.7754C178.753 22.6334 174.381 8.32836 185.108 3.44136M150.344 47.1394C148.073 43.3994 149.091 41.7374 148.901 37.6994C148.77 34.9704 147.871 32.1664 148.142 29.4394C148.611 24.7934 152.737 20.3264 157.024 18.5734C161.581 16.7104 165.681 19.5264 169.297 22.0614C172.406 24.2374 176.397 27.0464 178.397 30.3614C179.075 31.4796 179.526 32.7206 179.724 34.0134C179.008 34.7853 178.379 35.6334 177.848 36.5424C176.684 36.1408 175.542 35.6754 174.429 35.1484C171.483 33.9013 168.733 32.2344 166.264 30.1994C165.252 29.3664 163.735 30.7764 164.764 31.6214C167.497 33.8895 170.548 35.7427 173.821 37.1214C174.744 37.5084 175.802 38.0054 176.896 38.3844C176.423 39.4751 176.085 40.6196 175.889 41.7924C173.9 42.3124 171.822 42.3895 169.8 42.0184C167.779 41.6472 165.863 40.8368 164.189 39.6444C163.133 38.8444 162.054 40.6054 163.105 41.4054C164.918 42.6813 166.978 43.5651 169.152 44.0006C171.326 44.436 173.567 44.4135 175.732 43.9344C175.731 44.6981 175.798 45.4605 175.932 46.2124C175.973 46.4254 176.032 46.6324 176.081 46.8424C168.321 51.9294 156.043 56.5274 150.341 47.1374M192.775 79.5614C189.254 82.1614 187.506 81.2914 183.495 81.8424C180.795 82.2144 178.077 83.3624 175.338 83.3314C170.666 83.2804 165.851 79.5694 163.724 75.4534C161.461 71.0814 163.901 66.7474 166.102 62.9194C167.991 59.6314 170.436 55.4054 173.56 53.1194C175.078 52.0101 176.875 51.3462 178.75 51.2024C179.118 51.4682 179.51 51.6989 179.921 51.8914C179.717 53.5224 179.3 55.1197 178.681 56.6424C177.701 59.6848 176.286 62.5696 174.481 65.2074C173.74 66.2914 175.281 67.6754 176.031 66.5754C178.046 63.6515 179.621 60.4472 180.705 57.0654C181.247 55.6085 181.661 54.1071 181.943 52.5784C181.999 52.5914 182.056 52.6144 182.115 52.6244C182.884 52.7914 183.689 52.9374 184.503 53.0624C185.546 55.1514 186.054 57.4671 185.979 59.801C185.905 62.135 185.252 64.4138 184.078 66.4324C183.371 67.5574 185.224 68.4754 185.928 67.3554C187.141 65.2423 187.858 62.8808 188.023 60.4498C188.188 58.0188 187.797 55.5821 186.881 53.3244C187.793 53.3787 188.708 53.3503 189.615 53.2394C195.553 60.4334 201.915 72.8264 192.775 79.5584M223.159 51.9884C222.58 54.6564 222.726 57.5984 221.759 60.1634C220.109 64.5324 214.97 67.7824 210.375 68.3694C205.49 68.9924 202.259 65.2124 199.417 61.8314C197.117 59.0974 194.235 55.6214 193.008 52.1214C193.607 51.772 194.144 51.3252 194.597 50.7994C195.51 49.6574 196.255 48.3914 196.811 47.0394C197.175 47.3344 197.523 47.6234 197.839 47.8694C200.358 49.8349 202.581 52.1534 204.439 54.7534C205.203 55.8224 207.03 54.8534 206.256 53.7664C204.201 50.8703 201.732 48.2921 198.927 46.1144C198.486 45.7714 198.012 45.3844 197.515 44.9974C197.878 43.7246 198.031 42.4013 197.969 41.0794C200.051 41.0638 202.111 41.5117 203.999 42.3907C205.887 43.2696 207.556 44.5577 208.884 46.1614C209.696 47.2124 211.196 45.7844 210.384 44.7394C208.823 42.8831 206.862 41.4046 204.648 40.4148C202.434 39.4249 200.025 38.9496 197.601 39.0244C197.442 38.5591 197.228 38.1143 196.964 37.6994C197.064 37.5454 197.159 37.3894 197.254 37.2334C197.338 37.1001 197.389 36.949 197.403 36.7924C206.109 33.4684 220.888 31.1824 224.203 42.4924C225.431 46.6924 224.018 48.0354 223.16 51.9924" fill="#131414"/>
<path d="M135.266 48.1808C126.689 46.2078 118.025 45.1238 109.314 46.0948C104.373 41.0948 102.679 35.0948 99.106 29.2148C97.665 26.8448 94.233 21.8588 90.857 23.8948C83.415 28.3838 99.357 39.1708 102.545 40.8788C102.615 40.9082 102.689 40.93 102.764 40.9438C103.856 42.9099 105.146 44.7595 106.613 46.4638C106.122 46.5438 105.63 46.6228 105.14 46.7168C102.369 47.2448 99.65 47.8798 96.952 48.5538C95.8888 48.2423 94.8938 47.7334 94.019 47.0538C93.9715 46.8837 93.8806 46.729 93.7553 46.6047C93.6299 46.4804 93.4744 46.3908 93.304 46.3448C93.224 46.3208 93.147 46.2858 93.067 46.2618C90.816 44.2278 88.991 41.3868 87.395 39.3168C86.095 37.6318 82.826 34.0378 80.71 36.9948C78.939 39.4708 82.166 43.0478 84.056 44.3408C86.6079 46.055 89.3863 47.4054 92.311 48.3528C92.753 48.7168 93.211 49.0638 93.688 49.3848C90.011 50.3388 86.355 51.3198 82.655 52.1658C80.35 48.4658 78.24 43.8838 74.667 41.2658C72.993 40.0378 70.714 39.9778 70.135 42.3378C69.8906 43.5335 69.9825 44.7735 70.4006 45.9201C70.8186 47.0667 71.5464 48.0749 72.503 48.8328C74.615 50.4048 78.096 50.9248 80.127 52.7178C76.6489 53.4618 73.1272 53.9845 69.583 54.2828C68.6246 53.347 67.7761 52.3049 67.054 51.1768C67.0039 50.9657 66.8832 50.778 66.712 50.6448C65.741 49.1028 64.889 47.4658 64.061 45.9448C62.705 43.4658 61.08 39.9948 58.092 39.1578C57.9024 39.106 57.7026 39.1053 57.5126 39.1555C57.3226 39.2057 57.1492 39.3051 57.01 39.4438C55.351 41.1438 57.278 44.3678 58.294 45.9798C59.9967 48.5937 62.3278 50.7388 65.074 52.2188C65.5743 52.9937 66.1206 53.7381 66.71 54.4478C63.097 54.6318 59.49 54.6598 55.899 54.4948C55.899 54.4878 55.888 54.4808 55.884 54.4738C55.8756 54.455 55.8662 54.4366 55.856 54.4188C53.09 50.7948 51.856 46.7978 50.056 42.6758C49.298 40.9308 46.767 37.0448 44.679 39.8758C42.943 42.2328 45.323 46.6228 46.654 48.6328C48.154 50.9028 50.315 52.5428 52.386 54.2668C49.167 54.0178 45.963 53.6418 42.786 53.1198C40.2104 49.1868 38.275 44.8702 37.052 40.3308C36.584 38.5138 35.576 33.7818 32.567 35.8838C29.954 37.7078 31.867 42.9138 32.786 45.1228C33.6755 47.3177 35.0055 49.307 36.694 50.9678C37.2218 51.4494 37.7814 51.8951 38.369 52.3018C35.647 51.7424 32.947 51.0844 30.269 50.3278C30.2475 50.2927 30.2234 50.2592 30.197 50.2278C26.508 46.6518 24.956 41.9538 23.103 37.2948C22.26 35.1758 20.243 31.3288 17.43 33.7718C14.891 35.9768 16.892 40.1468 18.181 42.4138C19.3443 44.4417 20.8201 46.2735 22.554 47.8418C19.1247 46.6024 15.7553 45.1998 12.446 43.6338C12.4295 43.4535 12.3653 43.2809 12.26 43.1338C9.50799 39.2328 9.25299 34.6028 8.06999 30.1188C7.56399 28.2008 6.75099 24.9488 4.14899 25.1748C-2.00901 25.7128 3.25999 35.5748 6.28099 40.4968C4.79999 39.6848 3.33099 38.8488 1.88099 37.9718C1.62697 37.835 1.32976 37.8022 1.05202 37.8803C0.774282 37.9584 0.537722 38.1412 0.392215 38.3904C0.246707 38.6395 0.203623 38.9354 0.272045 39.2157C0.340468 39.4959 0.515051 39.7387 0.758985 39.8928C6.0661 43.1059 11.6187 45.8949 17.365 48.2338C12.838 49.6338 8.57598 48.6438 3.96499 48.8578C2.02999 48.9478 -0.787015 50.1978 0.205985 52.6958C1.17399 55.1338 5.28499 54.5698 7.23399 54.3958C11.316 54.0338 14.934 52.1718 18.459 50.2038C18.505 50.1701 18.5485 50.133 18.589 50.0928L18.628 50.0588C18.7898 49.9285 18.9061 49.7503 18.96 49.5497C19.0139 49.3491 19.0027 49.1366 18.928 48.9428C18.921 48.9138 18.912 48.8888 18.903 48.8628C22.6576 50.3327 26.4857 51.6074 30.372 52.6818C29.721 52.8088 29.072 52.9408 28.411 53.0428C26.543 53.3308 24.656 53.0428 22.82 53.5428C20.82 54.0898 15.067 56.4828 15.701 59.4528C17.164 66.3088 32.637 55.3188 34.801 53.8008C37.019 54.3214 39.2523 54.7751 41.501 55.1618C41.6679 55.3479 41.8933 55.4716 42.14 55.5125C42.3867 55.5534 42.6399 55.5091 42.858 55.3868C43.481 55.4868 44.105 55.5758 44.73 55.6658C41.657 56.7718 38.577 57.9878 35.575 59.2178C33.284 60.1558 29.705 62.6178 30.961 65.6348C33.403 71.5188 46.669 58.7548 48.468 56.4028C48.5183 56.3268 48.558 56.2444 48.586 56.1578C52.8545 56.6248 57.146 56.8502 61.44 56.8328C61.352 56.9258 61.268 57.0238 61.181 57.1188C58.511 58.9188 55.681 60.4788 53.195 62.5328C50.911 64.4208 44.195 69.8148 47.243 73.2998C50.052 76.5078 53.482 70.5128 54.872 68.6848C56.812 66.1328 58.653 63.5078 60.761 61.0848C61.196 60.5848 61.834 59.6848 62.536 58.8758C63.388 58.2878 64.222 57.6758 65.029 57.0398C65.186 56.9785 65.3216 56.8724 65.419 56.7348C67.162 56.6618 68.898 56.5528 70.624 56.3948C68.5527 58.4672 66.6293 60.6823 64.868 63.0238C63.41 64.8358 59.188 69.2398 61.959 71.6538C64.939 74.2538 67.473 68.8628 68.584 66.9108C70.7311 63.421 72.6741 59.8096 74.403 56.0948C74.4118 56.0598 74.4188 56.0244 74.424 55.9888C77.744 55.5708 81.036 54.9948 84.315 54.3048C84.23 54.4348 84.147 54.5648 84.063 54.6948C83.8703 54.7463 83.6984 54.8563 83.571 55.0098C81.384 57.5928 78.323 59.8528 76.991 63.0318C76.32 64.6318 74.822 68.4978 76.683 69.8448C79.162 71.6448 81.198 67.4448 81.663 65.6958C82.1128 63.4896 82.8525 61.3528 83.863 59.3408C84.902 57.4758 86.063 55.6758 87.246 53.9018C87.2957 53.8172 87.333 53.7259 87.357 53.6308C89.513 53.1248 91.663 52.5798 93.81 51.9748C94.91 51.6658 95.992 51.3808 97.07 51.1078C96.1254 52.745 95.5343 54.5621 95.335 56.4418C94.24 58.0568 85.335 72.9778 91.959 73.3668C94.816 73.5348 96.232 67.2178 96.625 65.2568C97.071 63.0278 96.965 60.2318 97.245 57.5838L97.257 57.5668C97.3547 57.4361 97.4162 57.2818 97.4349 57.1197C97.4537 56.9576 97.4293 56.7934 97.364 56.6438C97.718 54.2608 98.486 52.0698 100.401 50.6238C100.535 50.5244 100.646 50.398 100.727 50.2528C102.43 49.8854 104.12 49.5688 105.797 49.3028C105.75 50.4958 105.704 51.6888 105.667 52.8838L105.661 52.8958C105.136 55.0348 98.167 76.9958 104.616 75.2398C107.506 74.4538 107.174 68.8398 107.291 66.6248C107.6 60.7468 107.777 54.8618 108.031 48.9808C116.92 47.7996 125.951 48.2568 134.675 50.3298C136.07 50.6508 136.665 48.5058 135.267 48.1828M95.974 33.3688C95.121 32.5878 92.268 30.3598 92.139 29.2368C93.9183 26.5821 95.3516 26.5621 96.439 29.1768C96.8359 29.7449 97.2001 30.3352 97.53 30.9448C98.73 33.0448 99.748 35.1338 100.775 37.1748C99.0849 36.0236 97.4807 34.7513 95.975 33.3678M84.192 41.5188C83.715 41.0188 81.14 37.4188 83.526 38.3928C85.31 39.1248 86.617 41.9358 87.736 43.4198C87.914 43.6568 88.09 43.8928 88.265 44.1298C87.818 43.8928 87.375 43.6558 86.94 43.4238C85.924 42.9467 84.9951 42.3028 84.192 41.5188ZM46.518 42.7818C47.082 40.5818 48.51 44.7818 48.745 45.4008C49.214 46.6348 49.659 47.8748 50.175 49.0918C50.256 49.2838 50.348 49.4638 50.433 49.6538C49.6326 48.8994 48.9274 48.0502 48.333 47.1248C47.753 46.2018 46.225 43.9248 46.517 42.7828M34.797 44.1188C34.562 43.5388 32.919 38.0558 34.357 38.7128C34.823 38.9268 35.321 42.5288 35.496 43.1338C35.9169 44.6395 36.4353 46.1163 37.048 47.5548C37.207 47.9188 37.395 48.2768 37.574 48.6398C36.4015 47.2994 35.4628 45.7704 34.797 44.1188ZM20.897 42.5808C20.243 41.6018 18.658 39.4028 18.715 38.2388C19.7983 35.6501 20.5467 35.5318 20.96 37.8838C21.1467 38.3691 21.3327 38.8551 21.518 39.3418C22.4559 41.9572 23.5964 44.4956 24.929 46.9338C23.3755 45.6919 22.0165 44.2246 20.897 42.5808ZM3.99799 30.7288C4.80132 28.2341 5.34599 27.8774 5.63199 29.6588C5.78865 30.1828 5.92899 30.7111 6.05299 31.2438C6.68799 33.8188 7.10999 36.4188 7.85699 38.9088C6.99669 37.5901 6.21629 36.2209 5.51999 34.8088C5.20299 34.1548 3.94299 31.6878 3.99799 30.7288ZM5.74399 52.2508C4.70999 52.2878 2.39499 51.9938 4.39699 51.0998C5.19699 50.7408 7.22399 51.2558 8.10999 51.2998C9.00998 51.3408 9.91798 51.3718 10.823 51.3748C10.412 51.5088 10.006 51.6588 9.58599 51.7608C8.32513 52.0557 7.03746 52.2213 5.74299 52.2548M23.435 58.0308C22.6232 58.4406 21.7757 58.7753 20.903 59.0308C19.303 59.7868 18.833 59.5614 19.493 58.3548C20.238 55.3898 25.129 55.6278 27.525 55.4108C27.825 55.3838 28.125 55.3298 28.425 55.2838C28.043 55.5128 27.669 55.7578 27.282 55.9838C26.027 56.7088 24.753 57.4168 23.439 58.0318M36.594 63.3658C36.064 63.6658 35.528 63.9658 34.983 64.2358L33.661 64.8408C33.0137 63.9494 33.147 63.2684 34.061 62.7978C35.519 60.9978 38.754 60.4868 40.871 59.6358C41.722 59.2938 42.571 58.9418 43.419 58.5948C42.3082 59.5649 41.1394 60.4666 39.919 61.2948C38.843 62.0318 37.732 62.7208 36.598 63.3628M78.819 67.0348C77.529 68.7878 78.302 66.2178 78.541 65.3758C78.7352 64.6031 79.0143 63.8542 79.373 63.1428C79.7192 62.529 80.1209 61.9483 80.573 61.4078C80.073 63.3588 79.902 65.5648 78.821 67.0338M94.487 64.6648C94.262 65.8648 93.358 70.3758 92.175 70.7028C92.2081 69.1492 92.3643 67.6007 92.642 66.0718C93.2255 64.4017 93.9809 62.7968 94.896 61.2828C94.8194 62.4165 94.6822 63.5454 94.487 64.6648ZM72.53 45.1188C72.43 44.7868 71.877 42.7408 72.43 42.5188C72.78 42.3808 74.03 43.6188 74.307 43.8958C75.8533 45.5319 77.2015 47.3444 78.324 49.2958L77.588 48.9708C75.652 48.1138 73.17 47.3378 72.527 45.1108M59.982 44.4898C59.598 43.8248 59.341 43.1198 59.003 42.4348C58.543 41.5008 58.586 41.7498 59.09 42.4148C60.0437 43.6042 60.9039 44.8656 61.663 46.1878C61.896 46.6138 62.129 47.0478 62.363 47.4878C61.4329 46.6041 60.6314 45.5942 59.982 44.4878M50.427 70.6898C49.8417 71.8751 49.486 71.9418 49.36 70.8898C48.8553 70.0491 49.128 69.3288 50.178 68.7288C50.8591 67.8806 51.5869 67.0711 52.358 66.3038C53.6167 65.0603 54.9805 63.9277 56.434 62.9188C56.255 63.1518 56.072 63.3808 55.894 63.6188C54.337 65.6768 52.587 69.2458 50.427 70.6958M66.227 66.5548C65.897 67.1298 65.405 68.5698 64.834 68.9108C62.285 70.4298 64.418 67.2848 64.749 66.8158C65.814 65.3158 67.003 63.8898 68.201 62.4898C68.509 62.1328 68.819 61.7598 69.132 61.3838C69.015 61.5918 68.897 61.8008 68.781 62.0088C67.9403 63.5308 67.089 65.0458 66.227 66.5538M104.227 68.9238C104.486 67.3408 104.827 65.7718 105.176 64.2068C105.203 64.0848 105.236 63.9648 105.263 63.8428C105.185 65.3108 105.097 66.7768 104.975 68.2378C104.802 70.3138 103.403 73.9488 104.227 68.9238Z" fill="#131414"/>
<path d="M238.227 48.1808C246.804 46.2078 255.468 45.1238 264.179 46.0948C269.12 41.0948 270.814 35.0948 274.387 29.2148C275.828 26.8448 279.26 21.8588 282.636 23.8948C290.078 28.3838 274.136 39.1708 270.948 40.8788C270.878 40.9082 270.804 40.93 270.729 40.9438C269.637 42.9099 268.347 44.7595 266.88 46.4638C267.371 46.5438 267.863 46.6228 268.353 46.7168C271.124 47.2448 273.843 47.8798 276.541 48.5538C277.604 48.2423 278.599 47.7334 279.474 47.0538C279.521 46.8837 279.612 46.729 279.738 46.6047C279.863 46.4804 280.019 46.3908 280.189 46.3448C280.269 46.3208 280.346 46.2858 280.426 46.2618C282.677 44.2278 284.502 41.3868 286.098 39.3168C287.398 37.6318 290.667 34.0378 292.783 36.9948C294.554 39.4708 291.327 43.0478 289.437 44.3408C286.885 46.055 284.107 47.4054 281.182 48.3528C280.74 48.7168 280.282 49.0638 279.805 49.3848C283.482 50.3388 287.138 51.3198 290.838 52.1658C293.143 48.4658 295.252 43.8838 298.826 41.2658C300.5 40.0378 302.779 39.9778 303.358 42.3378C303.602 43.5334 303.51 44.7733 303.092 45.9197C302.674 47.0661 301.946 48.0741 300.989 48.8318C298.877 50.4038 295.396 50.9238 293.365 52.7168C296.844 53.461 300.367 53.9837 303.912 54.2818C304.87 53.346 305.719 52.3039 306.441 51.1758C306.491 50.9647 306.612 50.777 306.783 50.6438C307.754 49.1018 308.606 47.4648 309.434 45.9438C310.79 43.4648 312.415 39.9938 315.403 39.1568C315.593 39.105 315.792 39.1043 315.982 39.1545C316.172 39.2047 316.346 39.3041 316.485 39.4428C318.144 41.1428 316.217 44.3668 315.201 45.9788C313.497 48.5935 311.165 50.739 308.417 52.2188C307.917 52.9937 307.37 53.7381 306.781 54.4478C310.394 54.6318 314.001 54.6598 317.592 54.4948C317.592 54.4878 317.603 54.4808 317.607 54.4738C317.615 54.455 317.624 54.4366 317.634 54.4188C320.4 50.7948 321.634 46.7978 323.434 42.6758C324.192 40.9308 326.723 37.0448 328.811 39.8758C330.547 42.2328 328.167 46.6228 326.836 48.6328C325.336 50.9028 323.175 52.5428 321.104 54.2668C324.323 54.0178 327.527 53.6418 330.704 53.1198C333.28 49.1868 335.215 44.8702 336.438 40.3308C336.906 38.5138 337.914 33.7818 340.923 35.8838C343.536 37.7078 341.623 42.9138 340.704 45.1228C339.815 47.3177 338.485 49.307 336.796 50.9678C336.27 51.4502 335.713 51.8969 335.127 52.3048C337.849 51.7454 340.549 51.0874 343.227 50.3308C343.249 50.2957 343.273 50.2622 343.299 50.2308C346.988 46.6548 348.54 41.9568 350.393 37.2978C351.236 35.1788 353.253 31.3318 356.066 33.7748C358.605 35.9798 356.604 40.1498 355.315 42.4168C354.152 44.4447 352.676 46.2765 350.942 47.8448C354.371 46.6054 357.741 45.2028 361.05 43.6368C361.066 43.4565 361.131 43.2839 361.236 43.1368C363.991 39.2368 364.246 34.6028 365.429 30.1188C365.935 28.2008 366.748 24.9488 369.35 25.1748C375.508 25.7128 370.239 35.5748 367.218 40.4968C368.699 39.6848 370.168 38.8498 371.618 37.9718C371.872 37.8323 372.171 37.7976 372.45 37.875C372.73 37.9523 372.968 38.1356 373.114 38.3859C373.26 38.6362 373.303 38.9337 373.234 39.2151C373.164 39.4965 372.987 39.7397 372.741 39.8928C367.431 43.1063 361.876 45.8953 356.127 48.2338C360.654 49.6338 364.916 48.6438 369.527 48.8578C371.462 48.9478 374.279 50.1978 373.286 52.6958C372.318 55.1338 368.207 54.5698 366.258 54.3958C362.176 54.0338 358.558 52.1718 355.033 50.2038C354.987 50.1701 354.944 50.133 354.903 50.0928L354.864 50.0588C354.702 49.9285 354.586 49.7503 354.532 49.5497C354.478 49.3491 354.489 49.1366 354.564 48.9428C354.571 48.9138 354.58 48.8888 354.589 48.8628C350.834 50.3327 347.006 51.6074 343.12 52.6818C343.771 52.8088 344.42 52.9408 345.081 53.0428C346.949 53.3308 348.836 53.0428 350.672 53.5428C352.672 54.0898 358.425 56.4828 357.791 59.4528C356.328 66.3088 340.855 55.3188 338.691 53.8008C336.473 54.3214 334.24 54.7751 331.991 55.1618C331.824 55.3479 331.599 55.4716 331.352 55.5125C331.105 55.5534 330.852 55.5091 330.634 55.3868C330.011 55.4868 329.387 55.5758 328.762 55.6658C331.835 56.7718 334.915 57.9878 337.917 59.2178C340.208 60.1558 343.787 62.6178 342.531 65.6348C340.087 71.5188 326.827 58.7548 325.027 56.4028C324.977 56.3268 324.937 56.2444 324.909 56.1578C320.641 56.6248 316.349 56.8502 312.055 56.8328C312.143 56.9258 312.227 57.0238 312.314 57.1188C314.984 58.9188 317.814 60.4788 320.3 62.5328C322.584 64.4208 329.3 69.8148 326.252 73.2998C323.443 76.5078 320.013 70.5128 318.623 68.6848C316.683 66.1328 314.842 63.5078 312.734 61.0848C312.299 60.5848 311.661 59.6848 310.959 58.8758C310.107 58.2878 309.273 57.6758 308.466 57.0398C308.309 56.9785 308.173 56.8724 308.076 56.7348C306.333 56.6618 304.597 56.5528 302.871 56.3948C304.942 58.4685 306.866 60.6849 308.627 63.0278C310.085 64.8398 314.307 69.2438 311.536 71.6578C308.556 74.2578 306.022 68.8668 304.911 66.9148C302.764 63.4239 300.822 59.8115 299.094 56.0958C299.085 56.0608 299.078 56.0254 299.073 55.9898C295.753 55.5718 292.461 54.9958 289.182 54.3058C289.267 54.4358 289.35 54.5658 289.434 54.6958C289.627 54.7473 289.799 54.8573 289.926 55.0108C292.113 57.5938 295.174 59.8538 296.506 63.0328C297.177 64.6328 298.675 68.4988 296.814 69.8458C294.335 71.6458 292.299 67.4458 291.834 65.6968C291.384 63.4906 290.645 61.3538 289.634 59.3418C288.595 57.4768 287.434 55.6768 286.251 53.9028C286.201 53.8182 286.164 53.7269 286.14 53.6318C283.984 53.1258 281.834 52.5808 279.687 51.9758C278.587 51.6668 277.505 51.3818 276.427 51.1088C277.372 52.746 277.963 54.5631 278.162 56.4428C279.257 58.0578 288.162 72.9788 281.538 73.3678C278.681 73.5358 277.265 67.2188 276.872 65.2578C276.426 63.0288 276.532 60.2328 276.252 57.5848L276.24 57.5678C276.142 57.4371 276.081 57.2828 276.062 57.1207C276.043 56.9586 276.068 56.7944 276.133 56.6448C275.779 54.2618 275.011 52.0708 273.096 50.6248C272.962 50.5254 272.851 50.399 272.77 50.2538C271.067 49.8864 269.377 49.5698 267.7 49.3038C267.747 50.4968 267.793 51.6898 267.83 52.8848L267.836 52.8968C268.361 55.0358 275.33 76.9968 268.881 75.2408C265.991 74.4548 266.323 68.8408 266.206 66.6258C265.897 60.7478 265.72 54.8628 265.466 48.9818C256.575 47.7989 247.543 48.2551 238.816 50.3278C237.421 50.6498 236.827 48.5038 238.227 48.1808ZM277.517 33.3688C278.37 32.5878 281.223 30.3598 281.352 29.2368C279.573 26.5821 278.139 26.5621 277.052 29.1768C276.655 29.7449 276.291 30.3352 275.961 30.9448C274.761 33.0448 273.743 35.1338 272.716 37.1748C274.406 36.0236 276.01 34.7513 277.516 33.3678M289.298 41.5188C289.775 41.0188 292.35 37.4188 289.964 38.3928C288.18 39.1248 286.873 41.9358 285.754 43.4198C285.576 43.6568 285.4 43.8928 285.225 44.1298C285.672 43.8928 286.115 43.6558 286.55 43.4238C287.566 42.9467 288.495 42.3028 289.298 41.5188ZM326.973 42.7798C326.409 40.5798 324.981 44.7798 324.746 45.3988C324.277 46.6328 323.832 47.8728 323.316 49.0898C323.235 49.2818 323.143 49.4618 323.058 49.6518C323.858 48.8974 324.564 48.0482 325.158 47.1228C325.738 46.1998 327.266 43.9228 326.974 42.7808M338.693 44.1188C338.928 43.5388 340.571 38.0558 339.133 38.7128C338.667 38.9268 338.169 42.5288 337.994 43.1338C337.573 44.6395 337.055 46.1163 336.442 47.5548C336.283 47.9188 336.095 48.2768 335.916 48.6398C337.088 47.2994 338.027 45.7704 338.693 44.1188ZM352.593 42.5808C353.247 41.6018 354.832 39.4028 354.775 38.2388C353.692 35.6501 352.943 35.5318 352.53 37.8838C352.343 38.3691 352.157 38.8551 351.972 39.3418C351.034 41.9572 349.894 44.4956 348.561 46.9338C350.115 45.6919 351.474 44.2246 352.593 42.5808ZM369.493 30.7278C368.693 28.2338 368.148 27.8771 367.859 29.6578C367.702 30.1818 367.562 30.7101 367.438 31.2428C366.803 33.8208 366.381 36.4208 365.638 38.9078C366.498 37.5891 367.279 36.2199 367.975 34.8078C368.289 34.1548 369.552 31.6888 369.497 30.7298M367.747 52.2508C368.781 52.2878 371.096 51.9938 369.094 51.0998C368.294 50.7408 366.267 51.2558 365.381 51.2998C364.481 51.3408 363.573 51.3718 362.668 51.3748C363.079 51.5088 363.485 51.6588 363.905 51.7608C365.166 52.0557 366.454 52.2213 367.748 52.2548M350.056 58.0308C350.868 58.4406 351.715 58.7753 352.588 59.0308C354.188 59.7868 354.658 59.5614 353.998 58.3548C353.253 55.3898 348.362 55.6278 345.966 55.4108C345.666 55.3838 345.366 55.3298 345.066 55.2838C345.448 55.5128 345.822 55.7578 346.209 55.9838C347.464 56.7088 348.738 57.4168 350.052 58.0318M336.9 63.3598C337.43 63.6598 337.966 63.9598 338.511 64.2298L339.833 64.8348C340.48 63.9434 340.347 63.2624 339.433 62.7918C337.975 60.9918 334.74 60.4808 332.623 59.6298C331.772 59.2878 330.923 58.9358 330.075 58.5888C331.186 59.5589 332.355 60.4606 333.575 61.2888C334.651 62.0258 335.762 62.7148 336.896 63.3568M294.679 67.0318C295.969 68.7848 295.196 66.2148 294.957 65.3728C294.763 64.6001 294.484 63.8512 294.125 63.1398C293.779 62.526 293.377 61.9453 292.925 61.4048C293.425 63.3558 293.596 65.5618 294.677 67.0308M279.013 64.6638C279.238 65.8638 280.142 70.3748 281.325 70.7018C281.292 69.1482 281.136 67.5997 280.858 66.0708C280.274 64.4007 279.519 62.7958 278.604 61.2818C278.681 62.4155 278.818 63.5444 279.013 64.6638ZM300.96 45.1188C301.06 44.7868 301.613 42.7408 301.06 42.5188C300.71 42.3808 299.46 43.6188 299.183 43.8958C297.637 45.5319 296.288 47.3444 295.166 49.2958L295.902 48.9708C297.838 48.1138 300.32 47.3378 300.963 45.1108M313.508 44.4898C313.892 43.8248 314.149 43.1198 314.487 42.4348C314.947 41.5008 314.904 41.7498 314.4 42.4148C313.446 43.6064 312.586 44.8702 311.827 46.1948C311.594 46.6208 311.361 47.0548 311.127 47.4948C312.057 46.6111 312.859 45.6012 313.508 44.4948M323.067 70.6878C323.652 71.8731 324.008 71.9398 324.134 70.8878C324.639 70.0471 324.366 69.3268 323.316 68.7268C322.635 67.8786 321.907 67.0691 321.136 66.3018C319.876 65.0588 318.512 63.9269 317.057 62.9188C317.236 63.1518 317.419 63.3808 317.597 63.6188C319.154 65.6768 320.904 69.2458 323.064 70.6958M307.264 66.5548C307.594 67.1298 308.086 68.5698 308.657 68.9108C311.206 70.4298 309.073 67.2848 308.742 66.8158C307.677 65.3158 306.488 63.8898 305.29 62.4898C304.982 62.1328 304.672 61.7598 304.359 61.3838C304.476 61.5918 304.594 61.8008 304.71 62.0088C305.551 63.5308 306.402 65.0458 307.264 66.5538M269.264 68.9238C269.005 67.3408 268.664 65.7718 268.315 64.2068C268.288 64.0848 268.255 63.9648 268.228 63.8428C268.306 65.3108 268.394 66.7768 268.516 68.2378C268.689 70.3138 270.088 73.9488 269.264 68.9238Z" fill="#131414"/>
</svg>
