<svg width="61" height="62" viewBox="0 0 61 62" fill="none" xmlns="http://www.w3.org/2000/svg">
<path d="M30.5 62.0001C47.3447 62.0001 61 48.1209 61 31.0001C61 13.8792 47.3447 6.10352e-05 30.5 6.10352e-05C13.6553 6.10352e-05 0 13.8792 0 31.0001C0 48.1209 13.6553 62.0001 30.5 62.0001Z" fill="#646464"/>
<path d="M33.791 41.6241C30.0664 41.633 26.4899 40.1664 23.844 37.545L23.727 37.4241C21.1447 34.8047 19.7069 31.268 19.7288 27.5899C19.7507 23.9117 21.2307 20.3924 23.844 17.804C26.4944 15.1897 30.0676 13.724 33.7905 13.724C37.5133 13.724 41.0865 15.1897 43.737 17.804L43.857 17.922C46.4388 20.5417 47.8761 24.0784 47.8536 27.7564C47.8311 31.4343 46.3506 34.9532 43.737 37.541C41.0919 40.1636 37.5158 41.6317 33.791 41.6241ZM33.791 15.336C30.4921 15.3277 27.3245 16.6273 24.982 18.95L24.875 19.059C23.7431 20.2047 22.8479 21.5622 22.2407 23.0538C21.6335 24.5455 21.326 26.1422 21.336 27.7527C21.3459 29.3632 21.673 30.956 22.2986 32.4401C22.9242 33.9241 23.836 35.2704 24.982 36.4021C27.329 38.7185 30.4939 40.0173 33.7915 40.0173C37.0891 40.0173 40.254 38.7185 42.601 36.4021L42.708 36.2941C43.8401 35.1483 44.7354 33.7907 45.3427 32.2988C45.95 30.807 46.2575 29.2101 46.2476 27.5994C46.2376 25.9887 45.9105 24.3957 45.2848 22.9115C44.6591 21.4272 43.7471 20.0808 42.601 18.949C40.2588 16.6255 37.0911 15.3252 33.792 15.333L33.791 15.336Z" fill="#FAF9F6"/>
<path d="M13.81 48.2751C13.646 48.2748 13.486 48.2246 13.3512 48.1312C13.2164 48.0378 13.1132 47.9055 13.0554 47.7521C12.9975 47.5986 12.9878 47.4312 13.0273 47.272C13.0669 47.1129 13.154 46.9696 13.277 46.8611L21.849 38.3611C22.049 38.5851 22.234 38.7921 22.423 38.9791C22.612 39.1661 22.797 39.3321 22.987 39.5021L14.423 47.9901C14.2635 48.1614 14.0429 48.2631 13.809 48.2731L13.81 48.2751Z" fill="#FAF9F6"/>
</svg>
