<svg width="41" height="41" viewBox="0 0 41 41" fill="none" xmlns="http://www.w3.org/2000/svg">
<path d="M20.1326 40.233C16.5565 40.2358 13.0442 39.2852 9.95762 37.4792C6.87101 35.6732 4.32161 33.077 2.572 29.9581C0.822398 26.8392 -0.0641685 23.3102 0.00361488 19.7347C0.0713983 16.1592 1.09108 12.6664 2.95764 9.61601C4.75424 6.68363 7.27197 4.26028 10.2708 2.57697C13.2697 0.893651 16.6497 0.00647558 20.0886 9.93519e-06C23.6649 -0.00354399 27.1775 0.946419 30.2645 2.75203C33.3514 4.55765 35.9012 7.15363 37.6511 10.2725C39.401 13.3914 40.2878 16.9205 40.22 20.4961C40.1523 24.0717 39.1325 27.5646 37.2656 30.615C35.47 33.5489 32.9521 35.9735 29.9524 37.6569C26.9527 39.3404 23.5714 40.2267 20.1316 40.231L20.1326 40.233ZM20.1126 29.7C18.0196 29.7 15.9126 29.769 13.8626 29.9L13.5156 29.923L13.6046 30.258C14.1524 32.3348 15.0587 34.3 16.2826 36.065C16.8984 36.9652 17.7301 37.6965 18.7016 38.192C19.1427 38.4026 19.6249 38.5126 20.1136 38.514C20.6 38.5143 21.0801 38.4053 21.5186 38.195C22.0352 37.9526 22.5083 37.6265 22.9186 37.23C24.0172 36.1208 24.89 34.8088 25.4886 33.367C25.9383 32.3591 26.3156 31.3205 26.6176 30.259L26.7176 29.919L26.3626 29.896C24.2836 29.766 22.1816 29.696 20.1126 29.696V29.7ZM11.5206 30.069C9.53764 30.235 7.55264 30.461 5.62064 30.742L5.14164 30.809L5.43164 31.196C7.7611 34.2956 11.0149 36.5752 14.7236 37.706L15.5666 37.966L15.0346 37.26C14.2937 36.278 13.6676 35.2145 13.1686 34.09C12.6213 32.8568 12.1706 31.583 11.8206 30.28L11.7896 30.166L11.6396 30.066L11.5206 30.076V30.069ZM28.4206 30.169L28.3906 30.286C27.7884 32.7288 26.7431 35.0404 25.3066 37.106L24.9416 37.629L25.4306 37.712C28.3309 36.84 30.9701 35.2634 33.1126 33.123C33.7144 32.5208 34.2743 31.8784 34.7886 31.2L35.0806 30.813L34.6016 30.746C32.6676 30.467 30.6806 30.24 28.7016 30.073L28.5816 30.063L28.4296 30.17L28.4206 30.169ZM1.76164 21.282C1.93314 24.0103 2.71067 26.666 4.03764 29.056L4.08664 29.143L4.23364 29.214C6.55564 28.855 8.81364 28.582 11.0426 28.386L11.3596 28.357L11.2986 28.044C10.8604 25.8071 10.6135 23.5369 10.5606 21.258V21.118L10.4176 20.978H1.74164L1.76164 21.278V21.282ZM29.6616 21.256C29.6084 23.5353 29.3609 25.8058 28.9216 28.043L28.8606 28.356L29.1776 28.385C31.4306 28.585 33.6896 28.855 35.8926 29.197L35.9926 29.213L36.1386 29.142C37.493 26.729 38.2879 24.0425 38.4646 21.281L38.4846 20.981H29.6686L29.6616 21.258V21.256ZM12.2786 21.27C12.3351 23.5237 12.5901 25.7681 13.0406 27.977L13.0666 28.1L13.2166 28.213C15.6026 28.054 17.8816 27.977 20.1116 27.977C22.3646 27.977 24.6436 28.058 26.8846 28.204L27.0086 28.213L27.1576 28.1C27.6226 25.8506 27.8856 23.5642 27.9436 21.268L27.9506 20.978H12.2726L12.2796 21.27H12.2786ZM35.8886 11.037C33.6626 11.379 31.4056 11.653 29.1766 11.849L28.8596 11.878L28.9206 12.191C29.3587 14.428 29.6059 16.6982 29.6596 18.977V19.117L29.8026 19.257H38.4746L38.4546 18.957C38.2867 16.2285 37.5126 13.5717 36.1886 11.18L36.1396 11.093L35.9886 11.022L35.8886 11.038V11.037ZM13.0646 12.131L13.0386 12.254C12.5893 14.4631 12.3346 16.7074 12.2776 18.961L12.2706 19.254H27.9506L27.9436 18.962C27.8874 16.7083 27.6324 14.4639 27.1816 12.255L27.1556 12.132L27.0056 12.019C24.6256 12.176 22.3486 12.253 20.1106 12.253C17.8576 12.253 15.5786 12.173 13.3376 12.026L13.2136 12.017L13.0636 12.13L13.0646 12.131ZM4.08864 11.093L4.03964 11.18C2.71138 13.5695 1.93345 16.2255 1.76264 18.954L1.74264 19.254H10.5546V19.115C10.6027 16.7886 10.8513 14.4707 11.2976 12.187L11.3586 11.874L11.0416 11.845C8.81164 11.645 6.55164 11.376 4.32664 11.033L4.22664 11.017L4.08064 11.088L4.08864 11.093ZM20.1126 1.72501C19.627 1.72572 19.1474 1.8329 18.7076 2.03901C18.1914 2.28377 17.7185 2.61107 17.3076 3.00801C16.2093 4.11591 15.3359 5.42603 14.7356 6.86601C14.2852 7.87356 13.9079 8.91225 13.6066 9.97401L13.5066 10.314L13.8596 10.337C15.9086 10.467 18.0106 10.531 20.1096 10.531C22.1866 10.531 24.2886 10.465 26.3596 10.337L26.7066 10.317L26.6176 9.98001C26.0705 7.90331 25.1649 5.93812 23.9416 4.17301C23.3265 3.27184 22.4947 2.53974 21.5226 2.04401C21.0814 1.83445 20.5992 1.72517 20.1106 1.72401L20.1126 1.72501ZM14.7236 2.52501C11.0181 3.66295 7.76672 5.94241 5.43364 9.03801L5.13964 9.42501L5.62164 9.49201C7.55764 9.77101 9.54264 9.99801 11.5216 10.165L11.6416 10.175L11.7936 10.068C12.3957 7.58335 13.4514 5.23124 14.9076 3.13001L15.2726 2.60701L14.7506 2.51801L14.7196 2.52801L14.7236 2.52501ZM25.1886 2.97501C25.93 3.95672 26.5555 5.02077 27.0526 6.14601C27.5999 7.37922 28.0506 8.65305 28.4006 9.95601L28.4306 10.07L28.5806 10.17C30.6806 9.99401 32.6676 9.77001 34.6006 9.48701L35.0796 9.42001L34.7896 9.03301C32.4604 5.9336 29.2071 3.65402 25.4986 2.52301L24.6556 2.26301L25.1876 2.96901L25.1886 2.97501Z" fill="#131414"/>
</svg>
