<svg preserveAspectRatio="none" width="100%" height="100%" overflow="visible" style="display: block;" viewBox="0 0 16.6424 23.2841" fill="none" xmlns="http://www.w3.org/2000/svg">
<path id="Right" d="M15.6412 23.2841C15.4303 23.284 15.2248 23.2172 15.0542 23.0932L0.41217 12.4511C0.284506 12.3584 0.180588 12.2368 0.108948 12.0962C0.0373076 11.9555 0 11.8 0 11.6422C0 11.4844 0.0373076 11.3288 0.108948 11.1882C0.180588 11.0476 0.284506 10.926 0.41217 10.8332L15.0542 0.191121C15.2688 0.0351738 15.5365 -0.0291575 15.7985 0.012288C16.0605 0.0537336 16.2952 0.19763 16.4512 0.41219C16.6071 0.62675 16.6715 0.894465 16.63 1.15645C16.5886 1.41844 16.4447 1.65322 16.2302 1.80916L2.70117 11.6422L16.2302 21.4752C16.4011 21.5994 16.5283 21.7745 16.5935 21.9754C16.6587 22.1764 16.6587 22.3928 16.5933 22.5937C16.5279 22.7946 16.4005 22.9697 16.2294 23.0937C16.0584 23.2177 15.8525 23.2844 15.6412 23.2841Z" fill="var(--fill-0, #447361)"/>
</svg>
