<svg preserveAspectRatio="none" width="100%" height="100%" overflow="visible" style="display: block;" viewBox="0 0 48.725 52.689" fill="none" xmlns="http://www.w3.org/2000/svg">
<g id="Complex Liquid Icon">
<path id="Vector" d="M40.04 41.6403L47.284 37.4583C47.4944 37.3366 47.6691 37.1616 47.7904 36.9509C47.9117 36.7403 47.9754 36.5014 47.975 36.2583V25.6833C47.9756 25.4402 47.912 25.2012 47.7906 24.9905C47.6693 24.7798 47.4946 24.6049 47.284 24.4833L37.432 18.7973" stroke="var(--stroke-0, #FAF9F6)" stroke-width="1.5" stroke-linecap="round" stroke-linejoin="round"/>
<path id="Vector_2" d="M40.803 37.0523L43.975 35.2213C44.0991 35.1497 44.2021 35.0466 44.2738 34.9225C44.3454 34.7984 44.3831 34.6576 44.383 34.5143V27.4303C44.3831 27.287 44.3454 27.1462 44.2738 27.0221C44.2021 26.898 44.0991 26.795 43.975 26.7233L37.84 23.1813C37.7159 23.1098 37.5752 23.0721 37.432 23.0721C37.2888 23.0721 37.1481 23.1098 37.024 23.1813L34.624 24.5683" stroke="var(--stroke-0, #FAF9F6)" stroke-width="1.5" stroke-linecap="round" stroke-linejoin="round"/>
<path id="Vector_3" d="M19.87 20.8343L16.345 18.7983V7.42231C16.3448 7.17924 16.4085 6.94039 16.5298 6.72975C16.6511 6.51911 16.8257 6.3441 17.036 6.22231L26.197 0.935308C26.4071 0.813914 26.6454 0.75 26.888 0.75C27.1306 0.75 27.3689 0.813914 27.579 0.935308L36.74 6.22431C36.9507 6.34582 37.1256 6.52074 37.2471 6.73142C37.3686 6.94211 37.4324 7.1811 37.432 7.42431V9.45031" stroke="var(--stroke-0, #FAF9F6)" stroke-width="1.5" stroke-linecap="round" stroke-linejoin="round"/>
<path id="Vector_4" d="M37.435 13.0523V18.7983L32.325 21.7483" stroke="var(--stroke-0, #FAF9F6)" stroke-width="1.5" stroke-linecap="round" stroke-linejoin="round"/>
<path id="Vector_5" d="M30.31 18.7623L33.431 16.9623C33.555 16.8906 33.658 16.7875 33.7296 16.6634C33.8012 16.5393 33.839 16.3986 33.839 16.2553V9.16931C33.839 9.02603 33.8012 8.88529 33.7296 8.7612C33.658 8.63711 33.555 8.53403 33.431 8.46231L27.3 4.92031C27.1759 4.8484 27.035 4.81054 26.8915 4.81054C26.748 4.81054 26.6071 4.8484 26.483 4.92031L20.348 8.46131C20.224 8.53311 20.1211 8.6362 20.0495 8.76028C19.9779 8.88435 19.9401 9.02506 19.94 9.16831V16.2523C19.94 16.3956 19.9778 16.5363 20.0494 16.6604C20.121 16.7845 20.224 16.8876 20.348 16.9593L21.806 17.8003" stroke="var(--stroke-0, #FAF9F6)" stroke-width="1.5" stroke-linecap="round" stroke-linejoin="round"/>
<path id="Vector_6" d="M15.247 26.8483C18.2266 23.6748 20.8387 20.1753 23.034 16.4163L24.586 13.7283C24.7122 13.5101 24.8936 13.3289 25.1119 13.2029C25.3303 13.0769 25.5779 13.0106 25.83 13.0106C26.0821 13.0106 26.3297 13.0769 26.5481 13.2029C26.7664 13.3289 26.9478 13.5101 27.074 13.7283L28.412 16.0483C30.7439 20.037 33.5141 23.7527 36.671 27.1263C39.1496 29.8038 40.5497 33.3038 40.6014 36.9521C40.6531 40.6004 39.3528 44.1387 36.951 46.8853" stroke="var(--stroke-0, #FAF9F6)" stroke-width="1.5" stroke-linecap="round" stroke-linejoin="round"/>
<path id="Vector_7" d="M17.49 49.3433C19.9589 51.0422 22.8872 51.9477 25.8842 51.9389C28.8811 51.9302 31.8041 51.0076 34.263 49.2943" stroke="var(--stroke-0, #FAF9F6)" stroke-width="1.5" stroke-linecap="round" stroke-linejoin="round"/>
<path id="Vector_8" d="M6.914 28.5013L12.362 25.3563L23.974 32.0563V45.4703L13.124 51.7343C12.8926 51.8678 12.6301 51.9381 12.363 51.9381C12.0959 51.9381 11.8334 51.8678 11.602 51.7343L1.512 45.9093C1.28045 45.7759 1.08813 45.5838 0.954365 45.3524C0.820602 45.1211 0.750117 44.8586 0.75 44.5913V32.9413C0.749942 32.6739 0.820343 32.4112 0.954115 32.1796C1.08789 31.9481 1.28031 31.7558 1.512 31.6223L3.793 30.3063" stroke="var(--stroke-0, #FAF9F6)" stroke-width="1.5" stroke-linecap="round" stroke-linejoin="round"/>
<path id="Vector_9" d="M20.017 40.5693V42.6693C20.017 42.8271 19.9756 42.9822 19.8967 43.1189C19.8179 43.2556 19.7046 43.3692 19.568 43.4483L12.812 47.3483C12.6752 47.4273 12.52 47.4689 12.362 47.4689C12.204 47.4689 12.0488 47.4273 11.912 47.3483L5.156 43.4483C5.01924 43.3694 4.90567 43.2558 4.82668 43.1191C4.7477 42.9823 4.70607 42.8272 4.706 42.6693V34.8693C4.70607 34.7114 4.7477 34.5563 4.82668 34.4195C4.90567 34.2828 5.01924 34.1693 5.156 34.0903L11.912 30.1903C12.0488 30.1113 12.204 30.0697 12.362 30.0697C12.52 30.0697 12.6752 30.1113 12.812 30.1903L19.568 34.0903C19.7046 34.1694 19.8179 34.283 19.8967 34.4197C19.9756 34.5564 20.017 34.7115 20.017 34.8693V36.9693" stroke="var(--stroke-0, #FAF9F6)" stroke-width="1.5" stroke-linecap="round" stroke-linejoin="round"/>
</g>
</svg>
