<svg width="172" height="172" viewBox="0 0 172 172" fill="none" xmlns="http://www.w3.org/2000/svg">
<path d="M86 172C133.496 172 172 133.496 172 86C172 38.5035 133.496 0 86 0C38.5035 0 0 38.5035 0 86C0 133.496 38.5035 172 86 172Z" fill="url(#paint0_radial_4_100)"/>
<path d="M86 170.5C132.668 170.5 170.5 132.668 170.5 86C170.5 39.3319 132.668 1.5 86 1.5C39.3319 1.5 1.5 39.3319 1.5 86C1.5 132.668 39.3319 170.5 86 170.5Z" stroke="#FAF9F6" stroke-width="3"/>
<path d="M121.108 114.084C115.911 120.579 109.014 125.505 101.185 128.315C93.3553 131.124 84.9 131.707 76.7591 129.998C68.6182 128.289 61.1109 124.356 55.072 118.635C49.0332 112.914 44.6995 105.631 42.553 97.594C42.4637 97.2591 42.4525 96.9082 42.5203 96.5683C42.5881 96.2284 42.7331 95.9087 42.944 95.6337C43.1549 95.3587 43.4262 95.1358 43.7369 94.9823C44.0476 94.8287 44.3894 94.7485 44.736 94.748H46.836C47.3035 94.748 47.7604 94.6093 48.1491 94.3496C48.5378 94.0899 48.8408 93.7208 49.0197 93.289C49.1987 92.8571 49.2456 92.3819 49.1545 91.9234C49.0634 91.4649 48.8384 91.0437 48.508 90.713L41.121 83.326L38.197 80.402C37.6598 79.8652 36.9314 79.5637 36.172 79.5637C35.4126 79.5637 34.6842 79.8652 34.147 80.402L29.055 85.492L23.836 90.712C23.5056 91.0426 23.2807 91.4637 23.1896 91.9221C23.0984 92.3805 23.1453 92.8557 23.3241 93.2875C23.5029 93.7193 23.8057 94.0884 24.1943 94.3482C24.5828 94.608 25.0396 94.7468 25.507 94.747H27.815C28.3436 94.7481 28.8551 94.9343 29.2607 95.2731C29.6664 95.6119 29.9407 96.0821 30.036 96.602C32.6694 110.493 40.3754 122.908 51.6552 131.432C62.9349 139.956 76.982 143.98 91.0643 142.722C105.147 141.463 118.257 135.011 127.846 124.621C137.435 114.232 142.817 100.647 142.945 86.509L137.853 91.599C137.316 92.1358 136.587 92.4373 135.828 92.4373C135.069 92.4373 134.34 92.1358 133.803 91.599L130.879 88.675C130.51 95.041 128.783 101.254 125.815 106.898" stroke="#FAF9F6" stroke-width="3" stroke-linecap="round" stroke-linejoin="round"/>
<path d="M53.481 54.9579C57.6788 50.5605 62.7249 47.0603 68.3142 44.6687C73.9034 42.2772 79.9196 41.0442 85.999 41.0442C92.0784 41.0442 98.0946 42.2772 103.684 44.6687C109.273 47.0603 114.319 50.5605 118.517 54.9579" stroke="#FAF9F6" stroke-width="3" stroke-linecap="round" stroke-linejoin="round"/>
<path d="M126.246 65.9461C127.596 68.6504 128.669 71.485 129.446 74.4061C129.536 74.741 129.547 75.0921 129.48 75.4322C129.412 75.7723 129.267 76.0923 129.056 76.3675C128.845 76.6426 128.574 76.8656 128.263 77.0192C127.952 77.1727 127.61 77.2528 127.263 77.2531H125.163C124.696 77.2531 124.239 77.3917 123.85 77.6514C123.461 77.9111 123.158 78.2803 122.979 78.7121C122.8 79.144 122.753 79.6192 122.844 80.0777C122.936 80.5362 123.161 80.9574 123.491 81.2881L130.878 88.6751L133.802 91.5991C134.339 92.1358 135.068 92.4374 135.827 92.4374C136.586 92.4374 137.315 92.1358 137.852 91.5991L142.946 86.5081L148.167 81.2871C148.497 80.9563 148.722 80.5352 148.813 80.0767C148.904 79.6183 148.857 79.1432 148.678 78.7114C148.5 78.2796 148.197 77.9104 147.809 77.6505C147.42 77.3906 146.963 77.2516 146.496 77.2511H144.184C143.656 77.2498 143.144 77.0637 142.739 76.7251C142.333 76.3865 142.059 75.9167 141.963 75.3971C139.33 61.506 131.623 49.091 120.344 40.5668C109.064 32.0426 95.0166 28.0187 80.9342 29.2776C66.8519 30.5366 53.7412 36.9884 44.1523 47.3783C34.5633 57.7681 29.1817 71.3532 29.054 85.4911L34.146 80.4011C34.6832 79.8643 35.4116 79.5628 36.171 79.5628C36.9304 79.5628 37.6588 79.8643 38.196 80.4011L41.12 83.3251C41.2876 80.4507 41.7316 77.5992 42.446 74.8101" stroke="#FAF9F6" stroke-width="3" stroke-linecap="round" stroke-linejoin="round"/>
<path d="M111.049 81.1461L104.606 87.5871C104.036 88.1557 103.584 88.8311 103.275 89.5745C102.966 90.318 102.807 91.1151 102.806 91.9201V118.52H69.189V91.9191C69.1888 90.2944 68.5435 88.7363 67.395 87.5871L60.953 81.1461L70.31 71.7881L73.437 74.9151C76.769 78.2461 81.2876 80.1174 85.999 80.1174C90.7104 80.1174 95.229 78.2461 98.561 74.9151L101.692 71.7861L111.049 81.1461Z" stroke="#FAF9F6" stroke-width="3" stroke-linecap="round" stroke-linejoin="round"/>
<path d="M131.177 61.0161L111.049 81.1461L101.692 71.7891L121.82 51.6591C123.066 50.4458 124.741 49.7721 126.48 49.7838C128.219 49.7956 129.884 50.4918 131.114 51.7218C132.344 52.9518 133.041 54.6166 133.052 56.3561C133.064 58.0955 132.39 59.7696 131.177 61.0161Z" stroke="#FAF9F6" stroke-width="3" stroke-linecap="round" stroke-linejoin="round"/>
<path d="M70.311 71.7881L60.954 81.1461L40.824 61.0161C39.6107 59.7696 38.937 58.0955 38.9488 56.3561C38.9605 54.6166 39.6567 52.9518 40.8867 51.7218C42.1167 50.4918 43.7815 49.7956 45.521 49.7838C47.2604 49.7721 48.9345 50.4458 50.181 51.6591L70.311 71.7881Z" stroke="#FAF9F6" stroke-width="3" stroke-linecap="round" stroke-linejoin="round"/>
<path d="M102.81 127.709V118.525H69.189V127.709" stroke="#FAF9F6" stroke-width="3" stroke-linecap="round" stroke-linejoin="round"/>
<path d="M86.003 107.556C86.003 107.556 83.583 98.089 73.355 99.456C72.9593 99.5113 72.5827 99.6608 72.2569 99.8919C71.9311 100.123 71.6655 100.429 71.4826 100.784C71.2997 101.14 71.2049 101.533 71.206 101.933C71.2071 102.332 71.3041 102.726 71.489 103.08C72.559 105.154 74.451 107.556 77.469 107.556H86.003Z" stroke="#FAF9F6" stroke-width="3" stroke-linecap="round" stroke-linejoin="round"/>
<path d="M85.999 107.556C85.999 107.556 88.419 98.089 98.647 99.456C99.0427 99.5113 99.4193 99.6608 99.7451 99.8919C100.071 100.123 100.336 100.429 100.519 100.784C100.702 101.14 100.797 101.533 100.796 101.933C100.795 102.332 100.698 102.726 100.513 103.08C99.443 105.154 97.551 107.556 94.533 107.556H85.999Z" stroke="#FAF9F6" stroke-width="3" stroke-linecap="round" stroke-linejoin="round"/>
<path d="M90.536 101.138C91.803 97.8851 91.736 93.9191 86.957 90.5501C86.6763 90.3532 86.3418 90.2476 85.999 90.2476C85.6562 90.2476 85.3216 90.3532 85.041 90.5501C80.282 93.9051 80.195 97.8501 81.446 101.097" stroke="#FAF9F6" stroke-width="3" stroke-linecap="round" stroke-linejoin="round"/>
<path d="M96.318 58.3271V62.6831C96.318 65.4202 95.2307 68.0451 93.2953 69.9805C91.3599 71.9158 88.735 73.0031 85.998 73.0031C83.2609 73.0031 80.636 71.9158 78.7006 69.9805C76.7653 68.0451 75.678 65.4202 75.678 62.6831V58.3271C75.6784 56.2078 76.4844 54.1678 77.9327 52.6206C79.381 51.0733 81.3633 50.1344 83.478 49.9941C83.663 49.9791 83.847 49.9741 84.035 49.9741H87.968C90.1827 49.9752 92.3064 50.8557 93.8722 52.422C95.438 53.9884 96.3177 56.1124 96.318 58.3271Z" stroke="#FAF9F6" stroke-width="3" stroke-linecap="round" stroke-linejoin="round"/>
<defs>
<radialGradient id="paint0_radial_4_100" cx="0" cy="0" r="1" gradientUnits="userSpaceOnUse" gradientTransform="translate(86 86) scale(86)">
<stop stop-color="white" stop-opacity="0"/>
<stop offset="1" stop-color="white" stop-opacity="0.141"/>
</radialGradient>
</defs>
</svg>
