<svg width="86" height="111" viewBox="0 0 86 111" fill="none" xmlns="http://www.w3.org/2000/svg">
<path d="M35.9517 105.181L40.9887 102.159C41.4918 101.857 42.0674 101.697 42.6542 101.697C43.2409 101.697 43.8166 101.857 44.3197 102.159L49.3577 105.181" stroke="#FAF9F6" stroke-width="3" stroke-linecap="round" stroke-linejoin="round"/>
<path d="M59.4097 80.9646V73.9776" stroke="#FAF9F6" stroke-width="3" stroke-linecap="round" stroke-linejoin="round"/>
<path d="M49.3557 81.4806V105.181L54.5077 108.272C54.9989 108.566 55.5594 108.725 56.1321 108.732C56.7047 108.739 57.269 108.594 57.7672 108.312C58.2655 108.029 58.6798 107.62 58.9681 107.125C59.2563 106.63 59.408 106.067 59.4077 105.495V88.5156" stroke="#FAF9F6" stroke-width="3" stroke-linecap="round" stroke-linejoin="round"/>
<path d="M35.9517 91.2816V81.4806" stroke="#FAF9F6" stroke-width="3" stroke-linecap="round" stroke-linejoin="round"/>
<path d="M25.8937 73.9766V105.495C25.8936 106.067 26.0454 106.63 26.3337 107.124C26.622 107.619 27.0364 108.028 27.5346 108.311C28.0328 108.593 28.597 108.738 29.1696 108.731C29.7421 108.724 30.3026 108.565 30.7937 108.271L35.9457 105.18V98.8336" stroke="#FAF9F6" stroke-width="3" stroke-linecap="round" stroke-linejoin="round"/>
<path d="M50.6967 36.3526V34.5416C50.6967 32.8887 50.0401 31.3036 48.8713 30.1349C47.7026 28.9662 46.1175 28.3096 44.4647 28.3096H40.8427C39.363 28.3099 37.9318 28.8366 36.805 29.7956C35.6782 30.7545 34.9293 32.0831 34.6924 33.5437C34.4555 35.0042 34.7459 36.5014 35.5118 37.7674C36.2777 39.0333 37.469 39.9855 38.8727 40.4536L46.4357 42.9746C47.8401 43.4421 49.0323 44.3943 49.7988 45.6606C50.5653 46.9269 50.856 48.4248 50.6189 49.8859C50.3817 51.347 49.6323 52.676 48.5047 53.635C47.377 54.5939 45.9449 55.1202 44.4647 55.1196H40.8427C39.1898 55.1196 37.6047 54.463 36.436 53.2943C35.2672 52.1255 34.6107 50.5404 34.6107 48.8876V47.0756" stroke="#FAF9F6" stroke-width="3" stroke-linecap="round" stroke-linejoin="round"/>
<path d="M42.6537 24.9576V58.4686" stroke="#FAF9F6" stroke-width="3" stroke-linecap="round" stroke-linejoin="round"/>
<path d="M82.8347 44.1116L77.4247 49.6536L79.8977 56.9866C80.1844 57.8367 80.1268 58.7653 79.7373 59.5735C79.3478 60.3817 78.6573 61.0052 77.8137 61.3106L70.5347 63.9446L69.5807 71.6306C69.4705 72.5202 69.0165 73.3314 68.3159 73.8905C67.6152 74.4497 66.7236 74.7124 65.8317 74.6226L58.1257 73.8486L53.9337 80.3546C53.4477 81.1086 52.6858 81.6425 51.8111 81.8419C50.9365 82.0414 50.0185 81.8905 49.2537 81.4216L42.6537 77.3706L36.0537 81.4216C35.2888 81.8905 34.3709 82.0414 33.4962 81.8419C32.6215 81.6425 31.8597 81.1086 31.3737 80.3546L27.1817 73.8486L19.4757 74.6226C18.5838 74.7122 17.6923 74.4493 16.9917 73.8902C16.2911 73.3311 15.8371 72.5201 15.7267 71.6306L14.7727 63.9446L7.49767 61.3106C6.65373 61.0057 5.96288 60.3822 5.57329 59.5738C5.1837 58.7655 5.1264 57.8367 5.41367 56.9866L7.88667 49.6536L2.47667 44.1116C1.85054 43.4706 1.5 42.6101 1.5 41.7141C1.5 40.818 1.85054 39.9575 2.47667 39.3166L7.88667 33.7746L5.41167 26.4416C5.12476 25.5912 5.18248 24.6623 5.57243 23.854C5.96238 23.0456 6.65352 22.4223 7.49767 22.1176L14.7757 19.4836L15.7307 11.7976C15.8409 10.9083 16.2945 10.0975 16.9947 9.53836C17.6949 8.97924 18.5861 8.71624 19.4777 8.80556L27.1777 9.57956L31.3697 3.07256C31.8558 2.31865 32.6177 1.78497 33.4924 1.58575C34.3671 1.38652 35.285 1.53757 36.0497 2.00656L42.6497 6.05756L49.2497 2.00756C50.0143 1.53831 50.9323 1.38711 51.807 1.58636C52.6818 1.7856 53.4437 2.31945 53.9297 3.07356L58.1257 9.57956L65.8317 8.80556C66.7237 8.71626 67.6152 8.9795 68.3156 9.53901C69.016 10.0985 69.4697 10.9099 69.5797 11.7996L70.5337 19.4856L77.8127 22.1196C78.656 22.4247 79.3464 23.0478 79.7361 23.8556C80.1257 24.6634 80.1837 25.5916 79.8977 26.4416L77.4237 33.7746L82.8337 39.3166C83.4599 39.9574 83.8106 40.8178 83.8108 41.7139C83.811 42.6099 83.4607 43.4705 82.8347 44.1116Z" stroke="#FAF9F6" stroke-width="3" stroke-linecap="round" stroke-linejoin="round"/>
<path d="M27.6607 19.4826C33.2819 15.6895 40.1312 14.1664 46.8301 15.22C53.5291 16.2736 59.5803 19.8255 63.7657 25.161C67.9512 30.4965 69.9603 37.2194 69.3886 43.9765C68.8169 50.7336 65.7069 57.0234 60.6844 61.5798C55.662 66.1362 49.1001 68.621 42.3194 68.5341C35.5387 68.4472 29.0426 65.795 24.1386 61.1114C19.2346 56.4277 16.2868 50.0603 15.8884 43.2908C15.4901 36.5212 17.6708 29.8521 21.9917 24.6256" stroke="#FAF9F6" stroke-width="3" stroke-linecap="round" stroke-linejoin="round"/>
</svg>
