<svg preserveAspectRatio="none" width="100%" height="100%" overflow="visible" style="display: block;" viewBox="0 0 50.1581 53.109" fill="none" xmlns="http://www.w3.org/2000/svg">
<g id="Antioxidant Icon">
<path id="Vector" d="M28.573 4.244C28.573 4.93505 28.3681 5.61058 27.9842 6.18516C27.6003 6.75975 27.0546 7.20758 26.4161 7.47203C25.7777 7.73649 25.0752 7.80568 24.3974 7.67086C23.7196 7.53605 23.0971 7.20328 22.6084 6.71463C22.1198 6.22599 21.787 5.60341 21.6522 4.92565C21.5174 4.24788 21.5866 3.54535 21.851 2.9069C22.1155 2.26846 22.5633 1.72277 23.1379 1.33885C23.7125 0.954919 24.388 0.75 25.079 0.75C26.0057 0.75 26.8944 1.11812 27.5497 1.77337C28.2049 2.42862 28.573 3.31733 28.573 4.244Z" stroke="var(--stroke-0, #FAF9F6)" stroke-width="1.5" stroke-linecap="round" stroke-linejoin="round"/>
<path id="Vector_2" d="M5.99104 43.355C6.58949 43.0095 7.07205 42.4942 7.37768 41.8745C7.68332 41.2547 7.79831 40.5582 7.70811 39.8731C7.61791 39.1879 7.32658 38.5449 6.87095 38.0254C6.41532 37.5058 5.81586 37.1331 5.14837 36.9542C4.48088 36.7753 3.77534 36.7984 3.12097 37.0205C2.46659 37.2426 1.89278 37.6538 1.47209 38.202C1.05139 38.7503 0.802712 39.4109 0.757491 40.1005C0.712271 40.79 0.872541 41.4775 1.21804 42.076C1.44745 42.4734 1.75288 42.8217 2.11691 43.101C2.48094 43.3804 2.89642 43.5853 3.33964 43.7041C3.78285 43.8228 4.24512 43.8531 4.70005 43.7932C5.15498 43.7333 5.59366 43.5844 5.99104 43.355Z" stroke="var(--stroke-0, #FAF9F6)" stroke-width="1.5" stroke-linecap="round" stroke-linejoin="round"/>
<path id="Vector_3" d="M44.167 43.355C43.5686 43.0095 43.086 42.4942 42.7804 41.8745C42.4748 41.2547 42.3598 40.5582 42.45 39.8731C42.5402 39.1879 42.8315 38.5449 43.2871 38.0254C43.7428 37.5058 44.3422 37.1331 45.0097 36.9542C45.6772 36.7753 46.3827 36.7984 47.0371 37.0205C47.6915 37.2426 48.2653 37.6538 48.686 38.202C49.1067 38.7503 49.3554 39.4109 49.4006 40.1005C49.4458 40.79 49.2855 41.4775 48.94 42.076C48.7106 42.4734 48.4052 42.8217 48.0412 43.101C47.6771 43.3804 47.2617 43.5853 46.8184 43.7041C46.3752 43.8228 45.9129 43.8531 45.458 43.7932C45.0031 43.7333 44.5644 43.5844 44.167 43.355Z" stroke="var(--stroke-0, #FAF9F6)" stroke-width="1.5" stroke-linecap="round" stroke-linejoin="round"/>
<path id="Vector_4" d="M42.887 38.583C43.2329 37.9834 43.7491 37.5001 44.3701 37.1944C44.9911 36.8887 45.6889 36.7744 46.375 36.866C45.462 31.905 39.099 25.049 29.992 19.791C18.485 13.148 6.95804 11.573 4.24404 16.273C1.53004 20.973 8.65904 30.168 20.165 36.811C29.272 42.068 38.39 44.151 43.144 42.462C42.7226 41.9132 42.4732 41.2519 42.4275 40.5615C42.3817 39.871 42.5417 39.1826 42.887 38.583Z" stroke="var(--stroke-0, #FAF9F6)" stroke-width="1.5" stroke-linecap="round" stroke-linejoin="round"/>
<path id="Vector_5" d="M28.309 5.576C28.0453 6.21595 27.5975 6.76316 27.0224 7.14823C26.4472 7.5333 25.7707 7.73887 25.0785 7.73887C24.3864 7.73887 23.7098 7.5333 23.1347 7.14823C22.5595 6.76316 22.1117 6.21595 21.848 5.576C18.008 8.848 15.248 17.786 15.248 28.302C15.248 41.588 19.648 52.359 25.074 52.359C30.5 52.359 34.909 41.588 34.909 28.302C34.909 17.786 32.149 8.848 28.309 5.576Z" stroke="var(--stroke-0, #FAF9F6)" stroke-width="1.5" stroke-linecap="round" stroke-linejoin="round"/>
<path id="Vector_6" d="M38.784 13.573C33.791 13.705 26.975 15.86 20.165 19.792C11.059 25.05 4.69604 31.905 3.78304 36.867C4.46983 36.7746 5.1686 36.8885 5.79049 37.1943C6.41237 37.5 6.9293 37.9838 7.27554 38.5841C7.62178 39.1844 7.78169 39.8741 7.73495 40.5655C7.68821 41.2569 7.43692 41.9188 7.01304 42.467C11.766 44.157 20.885 42.075 29.992 36.816C41.498 30.173 48.627 20.978 45.913 16.278C45.5203 15.6695 45.008 15.1471 44.4072 14.7426C43.8064 14.3381 43.1296 14.06 42.418 13.925" stroke="var(--stroke-0, #FAF9F6)" stroke-width="1.5" stroke-linecap="round" stroke-linejoin="round"/>
<path id="Vector_7" d="M30.091 26.483C29.6637 25.3042 28.8344 24.3137 27.7491 23.6857C26.6638 23.0578 25.3918 22.8324 24.1568 23.0494C22.9218 23.2664 21.8028 23.9117 20.9965 24.872C20.1902 25.8323 19.7482 27.0461 19.7482 28.3C19.7482 29.5539 20.1902 30.7677 20.9965 31.728C21.8028 32.6883 22.9218 33.3336 24.1568 33.5506C25.3918 33.7676 26.6638 33.5422 27.7491 32.9143C28.8344 32.2863 29.6637 31.2958 30.091 30.117" stroke="var(--stroke-0, #FAF9F6)" stroke-width="1.5" stroke-linecap="round" stroke-linejoin="round"/>
</g>
</svg>
