<svg width="58" height="51" viewBox="0 0 58 51" fill="none" xmlns="http://www.w3.org/2000/svg">
<path d="M23.211 45.1475H45.111C56.906 37.9915 56.906 22.1025 56.906 22.1025H0.75C0.75 22.1025 0.749999 37.9875 12.543 45.1475H19.815" stroke="#FAF9F6" stroke-width="1.5" stroke-linecap="round" stroke-linejoin="round"/>
<path d="M45.113 45.1475V48.5075C45.113 48.7307 45.069 48.9518 44.9836 49.158C44.8982 49.3643 44.773 49.5517 44.6151 49.7095C44.4572 49.8674 44.2698 49.9926 44.0636 50.0781C43.8573 50.1635 43.6363 50.2075 43.413 50.2075H14.241C13.7901 50.2075 13.3577 50.0284 13.0389 49.7095C12.7201 49.3907 12.541 48.9583 12.541 48.5075V45.1475" stroke="#FAF9F6" stroke-width="1.5" stroke-linecap="round" stroke-linejoin="round"/>
<path d="M23.806 9.38045C22.6771 9.96477 21.645 10.7196 20.746 11.6184C16.746 15.6764 16.696 22.1024 16.696 22.1024C16.696 22.1024 23.12 21.9494 27.116 17.8924C31.112 13.8354 31.166 7.40845 31.166 7.40845C29.7431 7.48432 28.3337 7.72458 26.966 8.12445" stroke="#FAF9F6" stroke-width="1.5" stroke-linecap="round" stroke-linejoin="round"/>
<path d="M8.34199 18.7274C5.14199 15.4744 5.09399 10.3274 5.09399 10.3274C5.09399 10.3274 10.245 10.4504 13.449 13.7024C16.653 16.9544 16.696 22.1024 16.696 22.1024C16.696 22.1024 11.545 21.9804 8.34199 18.7274Z" stroke="#FAF9F6" stroke-width="1.5" stroke-linecap="round" stroke-linejoin="round"/>
<path d="M51.593 9.46744L44.683 4.92544C44.4447 4.76886 44.2395 4.56688 44.0793 4.33101C43.9191 4.09514 43.8069 3.83002 43.7491 3.55078C43.6913 3.27155 43.6892 2.98367 43.7427 2.70359C43.7962 2.42351 43.9044 2.15671 44.061 1.91844L44.186 1.72844C44.5022 1.24743 44.9965 0.911685 45.5602 0.795044C46.1239 0.678403 46.7109 0.790412 47.192 1.10644L54.103 5.64744C54.3413 5.80402 54.5464 6.00601 54.7067 6.24187C54.8669 6.47774 54.9791 6.74286 55.0369 7.0221C55.0946 7.30133 55.0968 7.58921 55.0433 7.86929C54.9898 8.14937 54.8816 8.41617 54.725 8.65444L54.6 8.84344C54.4437 9.08202 54.2418 9.28743 54.0061 9.44794C53.7703 9.60845 53.5051 9.72089 53.2259 9.77885C52.9466 9.8368 52.6586 9.83913 52.3784 9.7857C52.0982 9.73226 51.8313 9.62411 51.593 9.46744Z" stroke="#FAF9F6" stroke-width="1.5" stroke-linecap="round" stroke-linejoin="round"/>
<path d="M48.831 14.6645L51.655 9.5065L44.617 4.8855L31.206 22.1035H44.759L47.201 17.6435" stroke="#FAF9F6" stroke-width="1.5" stroke-linecap="round" stroke-linejoin="round"/>
</svg>
