<svg width="40" height="46" viewBox="0 0 40 46" fill="none" xmlns="http://www.w3.org/2000/svg">
<path fill-rule="evenodd" clip-rule="evenodd" d="M10.325 45.3791C7.58664 45.3791 4.96044 44.2913 3.02412 42.355C1.08781 40.4187 0 37.7925 0 35.0541L0 14.3391C0.000528461 14.0825 0.102684 13.8366 0.284104 13.6552C0.465525 13.4738 0.711433 13.3716 0.968 13.3711H4.713C4.84294 13.3669 4.97239 13.3889 5.09366 13.4358C5.21493 13.4826 5.32554 13.5533 5.41893 13.6438C5.51233 13.7342 5.58658 13.8425 5.6373 13.9622C5.68801 14.0819 5.71414 14.2106 5.71414 14.3406C5.71414 14.4706 5.68801 14.5993 5.6373 14.719C5.58658 14.8387 5.51233 14.947 5.41893 15.0374C5.32554 15.1279 5.21493 15.1986 5.09366 15.2454C4.97239 15.2923 4.84294 15.3143 4.713 15.3101H1.939V35.0661C1.94244 37.2894 2.82717 39.4207 4.39929 40.9928C5.97142 42.5649 8.10269 43.4497 10.326 43.4531H29.041C31.2643 43.4497 33.3956 42.5649 34.9677 40.9928C36.5398 39.4207 37.4246 37.2894 37.428 35.0661V15.3171H34.653C34.5231 15.3213 34.3936 15.2993 34.2723 15.2524C34.1511 15.2056 34.0405 15.1349 33.9471 15.0444C33.8537 14.954 33.7794 14.8457 33.7287 14.726C33.678 14.6063 33.6519 14.4776 33.6519 14.3476C33.6519 14.2176 33.678 14.0889 33.7287 13.9692C33.7794 13.8495 33.8537 13.7412 33.9471 13.6508C34.0405 13.5604 34.1511 13.4896 34.2723 13.4428C34.3936 13.3959 34.5231 13.3739 34.653 13.3781H38.4C38.657 13.3781 38.9035 13.48 39.0855 13.6614C39.2676 13.8429 39.3702 14.0891 39.371 14.3461V35.0561C39.3673 37.7943 38.2771 40.4192 36.3397 42.3543C34.4024 44.2894 31.7762 45.3766 29.038 45.3771H10.325V45.3791Z" fill="#131414"/>
<path fill-rule="evenodd" clip-rule="evenodd" d="M29.038 22.468C28.7889 22.4683 28.5493 22.3725 28.369 22.2006C28.1887 22.0287 28.0816 21.7938 28.07 21.545V10.329C28.0944 8.10463 27.2342 5.96167 25.6786 4.37155C24.1229 2.78143 21.9994 1.8744 19.775 1.85C17.5506 1.8256 15.4077 2.68583 13.8176 4.24144C12.2274 5.79706 11.3204 7.92063 11.296 10.145V21.545C11.2828 21.787 11.1799 22.0154 11.0074 22.1857C10.8349 22.356 10.6052 22.4559 10.363 22.466H10.32C10.0709 22.4663 9.83125 22.3705 9.65096 22.1986C9.47066 22.0267 9.36359 21.7918 9.35201 21.543V10.326C9.35201 7.58737 10.4399 4.96092 12.3764 3.02442C14.3129 1.08791 16.9394 0 19.678 0C22.4166 0 25.0431 1.08791 26.9796 3.02442C28.9161 4.96092 30.004 7.58737 30.004 10.326V21.541C29.9908 21.783 29.8879 22.0114 29.7154 22.1817C29.5429 22.352 29.3132 22.4519 29.071 22.462H29.032" fill="#131414"/>
<path fill-rule="evenodd" clip-rule="evenodd" d="M15.539 15.3081C15.2873 15.3001 15.0485 15.1944 14.8733 15.0134C14.6981 14.8325 14.6001 14.5905 14.6001 14.3386C14.6001 14.0868 14.6981 13.8448 14.8733 13.6638C15.0485 13.4829 15.2873 13.3772 15.539 13.3691H23.024C23.2757 13.3772 23.5145 13.4829 23.6897 13.6638C23.8649 13.8448 23.9629 14.0868 23.9629 14.3386C23.9629 14.5905 23.8649 14.8325 23.6897 15.0134C23.5145 15.1944 23.2757 15.3001 23.024 15.3081H15.539Z" fill="#131414"/>
<path d="M19.367 40C24.3376 40 28.367 35.9706 28.367 31C28.367 26.0294 24.3376 22 19.367 22C14.3964 22 10.367 26.0294 10.367 31C10.367 35.9706 14.3964 40 19.367 40Z" fill="#131414"/>
</svg>
