<svg width="38" height="27" viewBox="0 0 38 27" fill="none" xmlns="http://www.w3.org/2000/svg">
<path d="M18.826 14.8C19.1812 14.8 19.5329 14.7293 19.8605 14.5919C20.1881 14.4546 20.485 14.2534 20.734 14C25.1893 9.442 29.659 4.89233 34.143 0.351C33.5477 0.124504 32.9169 0.00565431 32.28 0L5.383 0C4.74736 0.0048152 4.11762 0.1223 3.523 0.347C8.01567 4.88033 12.4863 9.434 16.935 14.008C17.182 14.2588 17.4763 14.4579 17.801 14.5939C18.1256 14.7299 18.474 14.7999 18.826 14.8ZM1.3 1.911C0.466631 2.87675 0.00560468 4.1084 0 5.384L0 21.52C0.0040841 22.48 0.267352 23.4212 0.762 24.244C4.525 20.451 8.246 16.617 11.982 12.8C8.428 9.156 4.86733 5.52633 1.3 1.911ZM36.383 1.916C32.803 5.52867 29.2363 9.15667 25.683 12.8C29.438 16.6 33.126 20.469 36.904 24.247C37.3971 23.4237 37.6593 22.4827 37.663 21.523V5.384C37.6622 4.1117 37.2064 2.88162 36.378 1.916M18.826 17.487C18.1186 17.4867 17.4181 17.3468 16.7649 17.0754C16.1116 16.8039 15.5183 16.4062 15.019 15.905L13.861 14.72C10.115 18.513 6.433 22.374 2.661 26.143C3.48329 26.634 4.42227 26.8954 5.38 26.9H32.28C33.238 26.8963 34.1775 26.6352 35 26.144C31.233 22.37 27.529 18.533 23.8 14.721C23.416 15.115 23.031 15.507 22.643 15.906C22.1415 16.4076 21.5461 16.8055 20.8909 17.0769C20.2356 17.3483 19.5333 17.488 18.824 17.488" fill="#FAF9F6"/>
</svg>
