<svg preserveAspectRatio="none" width="100%" height="100%" overflow="visible" style="display: block;" viewBox="0 0 43.64 51.8421" fill="none" xmlns="http://www.w3.org/2000/svg">
<g id="Anti-Flammatory icon">
<path id="Vector" d="M0.750029 30.0262C0.750668 33.2986 1.51353 36.5259 2.97816 39.4523C4.44278 42.3786 6.56891 44.9236 9.18801 46.8856C11.8071 48.8475 14.8472 50.1723 18.0673 50.7552C21.2874 51.338 24.599 51.1628 27.7396 50.2434C30.8803 49.324 33.7636 47.6858 36.161 45.4584C38.5585 43.2311 40.4042 40.476 41.5518 37.4114C42.6995 34.3468 43.1175 31.057 42.7728 27.8028C42.4281 24.5486 41.3302 21.4194 39.566 18.6632C39.476 18.5203 39.3516 18.4022 39.2043 18.3195C39.057 18.2369 38.8914 18.1924 38.7225 18.19C38.5537 18.1876 38.3869 18.2275 38.2373 18.3059C38.0877 18.3843 37.9601 18.4989 37.866 18.6392L34.896 23.0392C34.7406 23.2685 34.5254 23.4509 34.2738 23.5668C34.0222 23.6827 33.7437 23.7277 33.4684 23.6968C33.1931 23.6659 32.9315 23.5604 32.7118 23.3916C32.4922 23.2228 32.3228 22.9972 32.222 22.7392L24.25 2.40718C24.0588 1.91879 23.7248 1.49941 23.2916 1.20377C22.8583 0.90814 22.346 0.75 21.8215 0.75C21.297 0.75 20.7847 0.90814 20.3515 1.20377C19.9183 1.49941 19.5842 1.91879 19.393 2.40718L11.412 22.7432C11.3114 23.0012 11.1422 23.2269 10.9226 23.3957C10.703 23.5645 10.4414 23.6701 10.1662 23.701C9.89094 23.7319 9.61248 23.6869 9.36094 23.571C9.10939 23.455 8.89434 23.2725 8.73903 23.0432L5.76903 18.6432C5.67497 18.5029 5.54735 18.3883 5.39778 18.3099C5.2482 18.2315 5.0814 18.1916 4.91252 18.194C4.74364 18.1964 4.57803 18.2409 4.43072 18.3235C4.28342 18.4062 4.15909 18.5243 4.06903 18.6672C1.89548 22.0565 0.743291 25.9998 0.750029 30.0262Z" stroke="var(--stroke-0, #FAF9F6)" stroke-width="1.5" stroke-linecap="round" stroke-linejoin="round"/>
<path id="Vector_2" d="M9.91203 12.2872L11.217 8.34118C11.3131 8.04958 11.4953 7.79393 11.7395 7.60793C11.9838 7.42194 12.2787 7.31432 12.5853 7.29927C12.8919 7.28422 13.196 7.36244 13.4573 7.52362C13.7186 7.68481 13.9249 7.92139 14.049 8.20218L15.515 11.5082" stroke="var(--stroke-0, #FAF9F6)" stroke-width="1.5" stroke-linecap="round" stroke-linejoin="round"/>
<path id="Vector_3" d="M7.28103 20.2412L8.79903 15.6532" stroke="var(--stroke-0, #FAF9F6)" stroke-width="1.5" stroke-linecap="round" stroke-linejoin="round"/>
<path id="Vector_4" d="M31.705 43.2352C29.253 45.0742 26.3372 46.1939 23.2846 46.4687C20.2319 46.7436 17.163 46.1627 14.422 44.7912C11.6809 43.4198 9.37605 41.3119 7.76574 38.704C6.15544 36.0961 5.30336 33.0912 5.30503 30.0262C5.30503 29.5369 5.3257 29.0532 5.36703 28.5752C5.37679 28.4714 5.41838 28.3731 5.48612 28.2938C5.55386 28.2146 5.64444 28.1581 5.74546 28.1323C5.84649 28.1065 5.95302 28.1125 6.0505 28.1495C6.14798 28.1865 6.23164 28.2528 6.29003 28.3392L7.37203 29.9292C7.73617 30.4635 8.23949 30.8881 8.82753 31.1571C9.41557 31.426 10.066 31.529 10.7083 31.455C11.3507 31.3809 11.9606 31.1326 12.472 30.737C12.9835 30.3413 13.377 29.8134 13.61 29.2102L18.896 15.5212C19.1234 14.9305 19.5244 14.4225 20.0462 14.0642C20.568 13.7059 21.1861 13.5141 21.819 13.5141C22.452 13.5141 23.0701 13.7059 23.5919 14.0642C24.1137 14.4225 24.5147 14.9305 24.742 15.5212L30.022 29.2102C30.2548 29.8136 30.6482 30.3419 31.1596 30.7377C31.6711 31.1336 32.2811 31.382 32.9236 31.4561C33.5661 31.5302 34.2166 31.427 34.8047 31.1579C35.3928 30.8887 35.8961 30.4638 36.26 29.9292L37.344 28.3392C37.4024 28.2528 37.4861 28.1865 37.5836 28.1495C37.681 28.1125 37.7876 28.1065 37.8886 28.1323C37.9896 28.1581 38.0802 28.2146 38.1479 28.2938C38.2157 28.3731 38.2573 28.4714 38.267 28.5752C38.309 29.0552 38.33 29.5412 38.33 30.0332C38.3281 33.9943 36.8967 37.8218 34.299 40.8122" stroke="var(--stroke-0, #FAF9F6)" stroke-width="1.5" stroke-linecap="round" stroke-linejoin="round"/>
<path id="Vector_5" d="M21.82 40.9632C21.0186 40.9632 20.2352 40.7255 19.5689 40.2803C18.9025 39.8351 18.3832 39.2022 18.0765 38.4618C17.7698 37.7214 17.6895 36.9067 17.8459 36.1207C18.0022 35.3347 18.3882 34.6127 18.9548 34.046C19.5215 33.4793 20.2435 33.0934 21.0295 32.937C21.8155 32.7807 22.6303 32.8609 23.3707 33.1676C24.1111 33.4743 24.7439 33.9937 25.1891 34.66C25.6344 35.3264 25.872 36.1098 25.872 36.9112C25.8722 37.4433 25.7674 37.9703 25.5639 38.462C25.3603 38.9536 25.0618 39.4004 24.6855 39.7767C24.3092 40.153 23.8625 40.4514 23.3708 40.655C22.8791 40.8586 22.3522 40.9633 21.82 40.9632Z" stroke="var(--stroke-0, #FAF9F6)" stroke-width="1.5" stroke-linecap="round" stroke-linejoin="round"/>
<path id="Vector_6" d="M36.402 20.3752L32.421 8.34018C32.3246 8.04898 32.1422 7.79377 31.898 7.60813C31.6538 7.42248 31.3591 7.31508 31.0527 7.30004C30.7463 7.285 30.4425 7.36303 30.1812 7.52387C29.92 7.6847 29.7136 7.92082 29.589 8.20118L28.126 11.5012" stroke="var(--stroke-0, #FAF9F6)" stroke-width="1.5" stroke-linecap="round" stroke-linejoin="round"/>
</g>
</svg>
