<svg preserveAspectRatio="none" width="100%" height="100%" overflow="visible" style="display: block;" viewBox="0 0 150.398 94.3587" fill="none" xmlns="http://www.w3.org/2000/svg">
<g id="Plant Ornament R">
<path id="Path 317" d="M1.82476 27.384C3.77776 27.17 5.69676 27.055 7.62476 26.923C4.89176 14.989 16.1828 4.25104 26.2378 0.116039C27.6218 -0.452961 28.9658 1.18904 28.5908 2.46704C26.9688 7.99104 23.6068 12.631 20.4998 17.414C18.4791 20.6649 16.2054 23.7515 13.6998 26.645C17.4598 26.553 21.1718 26.599 24.8278 26.808C26.4278 21.477 28.1038 15.525 31.8278 11.338C35.4608 7.25104 40.4038 4.17404 44.9278 1.17404C46.6088 0.0580391 48.3708 2.20004 47.5428 3.79304C44.9518 8.75104 44.2998 14 40.7868 18.538C37.9868 22.158 34.3868 24.646 30.8288 27.308C31.6288 27.392 32.4288 27.456 33.2198 27.553C33.4828 27.4217 33.7782 27.3691 34.0704 27.4018C34.3626 27.4344 34.6392 27.5509 34.8668 27.737C37.1328 28.037 39.3738 28.42 41.6018 28.837C42.9258 16.3 57.3778 9.94904 68.5588 9.72504C69.8868 9.69704 71.1028 11.425 70.2078 12.601C66.9928 16.846 62.7258 19.734 58.4528 22.829C54.8909 25.5392 51.1114 27.9507 47.1528 30.039C49.8268 30.661 52.4754 31.361 55.0988 32.139C55.1598 32.157 55.2158 32.139 55.2768 32.162C55.3378 32.185 55.3708 32.21 55.4218 32.233C55.8888 32.373 56.3628 32.49 56.8288 32.633C56.8648 32.592 56.8898 32.546 56.9288 32.508C60.9338 27.035 65.9998 22.26 72.3758 19.69C76.0928 18.19 84.1868 16.154 87.6208 19.438C93.0428 24.618 71.9778 31.838 62.6698 34.632C64.1558 35.1654 65.6328 35.7264 67.1008 36.315C67.2238 36.3023 67.3478 36.3023 67.4708 36.315C67.5916 36.3207 67.7117 36.3367 67.8298 36.363C67.8808 36.378 67.9298 36.383 67.9828 36.404C68.3376 36.5006 68.6449 36.7236 68.8468 37.031L68.8548 37.039C71.3761 38.0817 73.8738 39.194 76.3478 40.376C80.5478 28.649 95.7148 25.697 106.648 27.731C106.969 27.8225 107.261 27.996 107.494 28.2344C107.728 28.4728 107.896 28.7679 107.981 29.0907C108.066 29.4135 108.066 29.753 107.98 30.0756C107.894 30.3983 107.726 30.6931 107.492 30.931C103.563 34.281 98.9718 36.19 94.2918 38.266C90.2241 40.1913 86.0111 41.7929 81.6918 43.056C83.5918 44.056 85.4848 45.075 87.3618 46.156C87.6329 46.1069 87.9123 46.1316 88.1706 46.2277C88.4289 46.3238 88.6566 46.4876 88.8298 46.702L88.8348 46.707C88.8478 46.722 88.8628 46.725 88.8758 46.738C89.0388 46.932 89.1758 47.138 89.3368 47.329C89.6428 47.51 89.9488 47.691 90.2518 47.875C90.3714 47.6579 90.5432 47.4741 90.7518 47.34C94.5952 42.2711 99.6848 38.2828 105.526 35.763C109.189 34.282 118.864 31.893 122.02 35.863C126.93 42.045 101.957 48.563 94.2748 50.336C96.9188 52.016 99.5318 53.783 102.127 55.608C102.168 55.565 102.178 55.514 102.221 55.47C107.631 50.27 115.669 47.707 123.021 47.034C126.203 46.741 137.407 45.617 138.421 50.124C139.584 55.307 127.255 58.57 123.862 59.724C119.474 61.3018 114.799 61.9207 110.152 61.539C113.119 63.839 116.067 66.194 118.975 68.667C119.025 68.7031 119.074 68.7421 119.12 68.784C126.834 69.251 135.201 70.354 141.802 74.668C144.441 76.394 152.402 82.245 149.927 86.206C147.388 90.28 135.788 85.984 132.466 84.806C125.663 82.5318 119.956 77.796 116.466 71.529C115.309 70.545 114.141 69.607 112.976 68.651C116.925 76.263 119.224 84.992 115.949 92.906C115.533 93.906 114.241 94.872 113.14 94.048C108.515 90.581 107.06 83.675 105.426 78.418C103.608 72.567 102.532 67.369 103.754 61.418C100.754 59.203 97.7168 57.118 94.6538 55.111C98.5882 62.1228 100.799 69.9696 101.104 78.004C101.178 79.837 99.0388 80.286 97.8378 79.355C88.5228 72.122 85.8738 60.798 85.6378 49.54C82.3871 47.6687 79.0968 45.9224 75.7668 44.301C77.9126 46.8362 79.5776 49.7418 80.6798 52.875C82.4645 58.5105 83.6875 64.3088 84.3308 70.185C84.5858 72.232 81.7128 72.548 80.7698 71.149C77.8918 66.881 74.0698 63.287 71.3038 58.94C67.5328 53.018 67.0238 46.489 65.6828 39.85C64.0334 39.1947 62.3731 38.5727 60.7018 37.984C62.0915 41.2968 63.0536 44.7731 63.5648 48.329C64.8778 55.729 64.7018 62.718 60.8748 69.341C60.6672 69.7055 60.3347 69.9826 59.9388 70.121C59.6101 70.3356 59.2111 70.4145 58.8256 70.3412C58.44 70.2679 58.0978 70.0482 57.8708 69.728C50.2588 60.372 48.3308 46.628 52.2618 35.304C47.698 34.0187 43.0675 32.9838 38.3908 32.204C43.9413 40.1733 47.0829 49.5708 47.4408 59.276C47.5148 61.112 45.3758 61.56 44.1748 60.63C34.9898 53.499 32.2848 42.389 31.9838 31.289C27.9478 30.822 23.8518 30.534 19.6778 30.45C25.9966 38.2904 29.8368 47.8352 30.7088 57.867C30.7053 58.2023 30.6142 58.5307 30.4446 58.8199C30.275 59.1091 30.0327 59.3489 29.7419 59.5155C29.451 59.6822 29.1216 59.7699 28.7864 59.77C28.4512 59.7701 28.1217 59.6825 27.8308 59.516C18.0438 52.748 14.6708 41.8 13.7788 30.472C9.84976 30.564 5.87876 30.765 1.82476 31.209C-0.617244 31.474 -0.599244 27.649 1.82476 27.384Z" fill="var(--fill-0, #646464)"/>
</g>
</svg>
