<svg preserveAspectRatio="none" width="100%" height="100%" overflow="visible" style="display: block;" viewBox="0 0 150.386 94.3527" fill="none" xmlns="http://www.w3.org/2000/svg">
<g id="Plant Ornament L">
<path id="Path 317" d="M148.562 27.384C146.609 27.17 144.69 27.055 142.762 26.923C145.495 14.989 134.2 4.25104 124.149 0.116039C122.765 -0.452961 121.421 1.18904 121.796 2.46704C123.417 7.99104 126.78 12.631 129.883 17.414C131.904 20.6649 134.177 23.7515 136.683 26.645C132.923 26.553 129.211 26.599 125.555 26.808C123.955 21.477 122.279 15.525 118.555 11.338C114.922 7.25104 109.979 4.17404 105.455 1.17404C103.772 0.0570391 102.011 2.19904 102.839 3.79204C105.429 8.75104 106.084 14.002 109.595 18.538C112.395 22.158 115.995 24.646 119.553 27.308C118.753 27.392 117.953 27.456 117.162 27.553C116.899 27.4217 116.604 27.3691 116.311 27.4018C116.019 27.4344 115.743 27.5509 115.515 27.737C113.249 28.037 111.008 28.42 108.78 28.837C107.461 16.3 93.009 9.94904 81.827 9.72504C80.5 9.70004 79.283 11.42 80.178 12.6C83.393 16.845 87.66 19.733 91.933 22.828C95.4949 25.5382 99.2744 27.9497 103.233 30.038C100.559 30.66 97.9104 31.36 95.287 32.138C95.226 32.156 95.17 32.138 95.109 32.161C95.048 32.184 95.015 32.209 94.964 32.232C94.497 32.372 94.023 32.489 93.557 32.632C93.521 32.591 93.496 32.545 93.457 32.507C89.452 27.035 84.384 22.26 78.011 19.69C74.294 18.19 66.2 16.154 62.766 19.438C57.344 24.618 78.409 31.838 87.717 34.632C86.231 35.1654 84.754 35.7264 83.286 36.315C83.163 36.3023 83.039 36.3023 82.916 36.315C82.7952 36.3207 82.6751 36.3367 82.557 36.363C82.506 36.378 82.457 36.383 82.404 36.404C82.0492 36.5006 81.7419 36.7236 81.54 37.031L81.532 37.039C79.0107 38.0817 76.513 39.194 74.039 40.376C69.839 28.649 54.672 25.697 43.739 27.731C43.4179 27.8225 43.1262 27.996 42.8924 28.2344C42.6587 28.4728 42.491 28.7679 42.4059 29.0907C42.3207 29.4135 42.321 29.753 42.4068 30.0756C42.4926 30.3983 42.6608 30.6931 42.895 30.931C46.824 34.281 51.415 36.19 56.095 38.266C60.1626 40.1913 64.3757 41.7929 68.695 43.056C66.795 44.056 64.902 45.075 63.025 46.156C62.7538 46.1069 62.4744 46.1316 62.2161 46.2277C61.9578 46.3238 61.7302 46.4876 61.557 46.702L61.552 46.707C61.539 46.722 61.524 46.725 61.511 46.738C61.348 46.932 61.211 47.138 61.05 47.329C60.744 47.51 60.438 47.691 60.135 47.875C60.0154 47.6579 59.8435 47.4741 59.635 47.34C55.7936 42.2682 50.7049 38.2768 44.864 35.754C41.201 34.273 31.526 31.884 28.37 35.854C23.46 42.036 48.433 48.554 56.115 50.327C53.471 52.007 50.858 53.774 48.263 55.599C48.222 55.556 48.212 55.505 48.169 55.461C42.759 50.261 34.721 47.698 27.369 47.025C24.187 46.732 12.983 45.608 11.969 50.115C10.806 55.298 23.135 58.561 26.528 59.715C30.9158 61.2928 35.5908 61.9117 40.238 61.53C37.271 63.83 34.323 66.185 31.415 68.658C31.3644 68.6941 31.3159 68.7332 31.27 68.775C23.556 69.242 15.189 70.345 8.58802 74.659C5.95602 76.383 -1.99998 82.234 0.469018 86.2C3.00802 90.274 14.608 85.978 17.93 84.8C24.7331 82.5258 30.4401 77.7901 33.93 71.523C35.087 70.539 36.255 69.601 37.42 68.645C33.471 76.257 31.172 84.986 34.447 92.9C34.863 93.9 36.155 94.866 37.256 94.042C41.881 90.575 43.336 83.669 44.97 78.412C46.788 72.561 47.864 67.363 46.642 61.412C49.642 59.197 52.679 57.112 55.742 55.105C51.8075 62.1168 49.5967 69.9636 49.292 77.998C49.218 79.831 51.357 80.28 52.558 79.349C61.873 72.116 64.522 60.792 64.758 49.534C68.0087 47.6627 71.299 45.9164 74.629 44.295C72.4832 46.8302 70.8182 49.7358 69.716 52.869C67.9313 58.5045 66.7083 64.3028 66.065 70.179C65.81 72.226 68.683 72.542 69.626 71.143C72.504 66.875 76.326 63.281 79.092 58.934C82.863 53.012 83.372 46.483 84.713 39.844C86.3623 39.1887 88.0227 38.5667 89.694 37.978C88.3043 41.2908 87.3422 44.7671 86.831 48.323C85.518 55.723 85.694 62.712 89.521 69.335C89.7286 69.6995 90.0611 69.9766 90.457 70.115C90.7857 70.3296 91.1846 70.4085 91.5702 70.3352C91.9558 70.2619 92.298 70.0422 92.525 69.722C100.137 60.366 102.065 46.622 98.134 35.298C102.696 34.0109 107.325 32.974 112 32.192C106.449 40.1613 103.308 49.5588 102.95 59.264C102.876 61.1 105.015 61.548 106.216 60.618C115.401 53.487 118.106 42.377 118.407 31.277C122.443 30.81 126.539 30.522 130.713 30.438C124.39 38.2811 120.548 47.8305 119.677 57.867C119.681 58.2023 119.772 58.5307 119.941 58.8199C120.111 59.1091 120.353 59.3489 120.644 59.5155C120.935 59.6822 121.264 59.7699 121.599 59.77C121.935 59.7701 122.264 59.6825 122.555 59.516C132.342 52.747 135.715 41.8 136.607 30.471C140.536 30.563 144.507 30.764 148.561 31.208C151.003 31.473 150.986 27.649 148.562 27.384Z" fill="var(--fill-0, #646464)"/>
</g>
</svg>
