<svg width="108" height="96" viewBox="0 0 108 96" fill="none" xmlns="http://www.w3.org/2000/svg">
<path d="M10.4649 61.6604C12.4677 60.1935 14.498 58.8781 16.5407 57.6341C20.4585 63.3338 25.5709 68.0748 32.7863 68.6663C32.99 68.6656 33.1899 68.6118 33.3663 68.51C33.5428 68.4083 33.6895 68.2622 33.7922 68.0863C33.8948 67.9104 33.9496 67.7107 33.9513 67.5071C33.953 67.3035 33.9015 67.1029 33.8019 66.9253C30.289 61.8973 25.3571 58.0307 19.636 55.8193C21.86 54.5953 24.1082 53.4994 26.3763 52.5178C29.9128 58.2772 34.7174 63.309 41.7302 64.2716C42.6437 64.3978 43.6353 63.5054 43.0395 62.5654C39.8978 57.559 35.3826 53.5618 30.0323 51.0502C32.7344 50.0384 35.4899 49.1753 38.2864 48.4648C38.9924 52.1007 40.5885 55.505 42.9322 58.373C45.2758 61.2411 48.2938 63.4836 51.7162 64.8998C51.9331 64.9994 52.1802 65.0113 52.4057 64.9329C52.6312 64.8546 52.8176 64.6921 52.9261 64.4795C53.0928 64.2856 53.1836 64.0379 53.1818 63.7823C53.1835 59.1232 51.1538 55.3957 48.2063 51.8885C46.8538 50.169 45.2881 48.6284 43.5468 47.3041C44.6076 47.1073 45.6711 46.9275 46.7401 46.771C49.4626 49.8584 51.7294 53.1546 55.5109 55.1225C58.2922 56.5698 61.4002 57.303 64.2156 58.6774C65.1387 59.1283 66.5574 58.0875 65.8 57.0837C63.6724 54.1828 61.2633 51.4994 58.6078 49.0725C57.0739 47.7567 55.3129 46.7316 53.4111 46.0476C55.6609 45.8895 57.9262 45.8091 60.207 45.8063C63.7572 51.6675 68.5961 56.8307 75.7092 57.807C76.6227 57.9332 77.6135 57.0413 77.0177 56.1012C74.4124 51.9595 70.8596 48.4966 66.6525 45.9983C68.8784 46.1277 71.1141 46.2999 73.3677 46.5553C74.5333 50.0543 76.6949 52.4863 79.4214 55.0067C81.8805 57.282 84.7496 60.4753 88.2478 60.8944C89.078 60.9924 89.4667 60.0936 89.3803 59.438C88.6988 54.2716 84.8293 50.3695 80.4318 47.5587C81.3368 47.7082 82.2394 47.8476 83.1486 48.0143C86.8944 50.2575 91.3443 51.0168 95.6219 50.1428C97.7397 49.755 105.141 48.5311 105.251 45.5775C105.359 42.744 99.4002 42.0829 97.4579 41.9687C92.6758 41.6859 87.9115 43.6699 83.7162 45.7675C83.6791 45.7612 83.6417 45.7505 83.6057 45.7482C81.3186 45.3308 79.047 44.9842 76.7817 44.6766C79.3474 43.4627 81.6244 41.7151 83.4604 39.5505C84.91 37.9053 90.4061 32.4227 88.2143 30.0624C86.3069 28.0067 80.682 32.044 79.1596 33.1193C75.4944 35.7088 72.0338 39.515 70.7658 43.8948C70.7546 43.9313 70.7644 43.9603 70.7571 43.9957C68.8342 43.823 66.9188 43.6875 65.0144 43.607C68.527 40.333 79.7102 29.3049 75.2264 27.5347C72.5047 26.4606 68.2802 30.3396 66.8135 32.1171C64.3188 35.2939 62.7371 39.0905 62.2384 43.0989C62.1718 43.2328 62.1384 43.3808 62.1411 43.5303C61.9254 43.5267 61.7098 43.5253 61.4937 43.523C61.3476 43.47 61.2146 43.4036 61.0699 43.3509C60.9088 43.2835 60.7322 43.2623 60.5597 43.2897C60.3873 43.317 60.2258 43.3919 60.0936 43.5058C58.7774 43.5082 57.4688 43.5456 56.1633 43.5984C58.0571 41.6181 59.7913 39.491 61.3494 37.237C63.1761 34.7229 65.0189 32.3148 66.0707 29.3566C66.1215 29.1602 66.1203 28.9539 66.0672 28.758C66.0141 28.5622 65.911 28.3835 65.7681 28.2395C65.6251 28.0956 65.4471 27.9913 65.2516 27.9368C65.0562 27.8824 64.8499 27.8798 64.6531 27.9292C58.2719 30.1827 51.174 36.3568 52.5336 43.8176C50.8699 43.9467 49.2152 44.12 47.5694 44.3373C47.3696 44.238 47.1406 44.2144 46.9247 44.2707C46.891 44.2778 46.8577 44.287 46.8251 44.2982C46.7563 44.3187 46.6896 44.346 46.6261 44.3796C46.5563 44.4101 46.4901 44.4484 46.4287 44.4936C45.4827 44.631 44.5396 44.7837 43.5996 44.9515C47.6811 40.6609 56.5106 30.6199 52.1093 29.3528C49.3749 28.5667 45.5894 32.288 44.1519 34.126C41.6938 37.4768 40.2243 41.4494 39.9102 45.5932C39.9016 45.6224 39.902 45.651 39.8962 45.6809C39.6079 45.7457 39.3234 45.8269 39.0358 45.8948C39.0011 45.8986 38.9679 45.897 38.9328 45.9023C38.8977 45.9075 38.8696 45.9388 38.8301 45.9465C37.2117 46.3313 35.6031 46.7678 34.0043 47.2559C35.4557 44.9503 36.7145 42.5289 37.7677 40.0163C39.0773 37.0847 40.451 34.2639 40.8516 31.0478C40.8513 30.8433 40.7974 30.6424 40.6954 30.4652C40.5934 30.288 40.4468 30.1406 40.2701 30.0376C40.0934 29.9347 39.8929 29.8798 39.6884 29.8785C39.4839 29.8771 39.2826 29.9293 39.1046 30.0299C33.2763 33.553 27.5946 41.294 30.7183 48.3044C29.4169 48.7624 28.1207 49.2452 26.8326 49.7741C26.6564 49.7458 26.4758 49.7687 26.3123 49.8402C26.1489 49.9116 26.0094 50.0286 25.9105 50.1771C25.4641 50.3679 25.0205 50.5755 24.5765 50.7765C25.7835 48.356 26.6514 45.7809 27.1556 43.1236C27.6117 39.6676 26.3628 36.7005 26.213 33.3009C26.1663 32.2101 24.5858 31.6146 24.0382 32.7182C22.5663 35.6788 20.9069 38.7985 20.229 42.0605C19.5399 45.3889 20.4736 49.0541 21.2507 52.3421C19.2593 53.3429 17.2886 54.4495 15.3343 55.6425C15.7733 53.3552 16.0318 51.037 16.1071 48.7092C16.2879 45.2423 16.6485 41.7767 15.8197 38.3673C15.6287 37.5804 14.4203 37.1234 13.8649 37.8435C9.82176 43.0866 7.13867 52.1793 12.2104 57.6377C11.2354 58.293 10.2594 58.9385 9.29554 59.6451C8.09988 60.5202 9.24966 62.5456 10.459 61.6603M20.0655 58.5332C23.8718 60.1954 27.2594 62.6857 29.9817 65.8226C25.9154 64.6716 22.6985 61.8697 20.0655 58.5332ZM29.8177 53.5205C33.5 55.3787 36.7268 58.0265 39.2681 61.2752C35.2952 59.8739 32.2703 56.9785 29.8177 53.5205ZM40.6111 48.2392C43.0564 48.8966 45.6879 52.4326 47.0379 54.1127C48.9586 56.3279 50.2292 59.0312 50.7091 61.9235C48.1414 60.5023 45.9103 58.544 44.1681 56.1822C42.4259 53.8204 41.2135 51.1106 40.6137 48.2377M61.0723 54.9231C59.7407 54.4367 58.4117 53.9488 57.1354 53.3382C54.2714 51.9676 52.3342 49.8043 50.4229 47.5257C53.1017 48.2165 55.5795 49.53 57.6546 51.3595C58.8459 52.4788 59.9873 53.6778 61.0791 54.9249M63.8012 47.0637C67.4832 48.9217 70.7099 51.5692 73.2512 54.8175C69.2783 53.4162 66.2538 50.5217 63.8012 47.0637ZM86.6635 58.0563C84.3564 56.9484 82.1396 54.3646 80.5338 52.8634C78.9242 51.4654 77.557 49.8108 76.4873 47.9666C80.8278 50.2226 85.1639 53.4649 86.6635 58.0563ZM99.2221 44.5286C99.8179 44.6465 101.239 45.222 102.132 45.4569C102.03 45.5446 101.941 45.6122 101.819 45.7288C100.79 46.2166 99.7306 46.6357 98.6464 46.9833C96.775 47.6071 94.8394 48.0189 92.8761 48.2109C90.6581 48.3698 88.4355 47.9711 86.411 47.0511C88.7027 45.9369 91.122 45.1074 93.6152 44.5811C95.4629 44.1979 97.3676 44.18 99.2221 44.5286ZM85.891 32.2663C86.3763 33.1189 81.6408 38.1427 80.8212 38.9831C78.828 41.1605 76.2393 42.7049 73.3764 43.4245C74.5398 40.792 76.2879 38.4594 78.488 36.6039C79.0764 36.0771 85.4178 31.4368 85.891 32.2663ZM73.5766 30.0472L73.3417 30.4403C72.9072 31.1038 72.4567 31.7588 71.9902 32.4054C71.1176 33.6181 70.1947 34.7976 69.2301 35.9388C67.9786 37.4211 66.647 38.8227 65.2639 40.1732C66.5545 35.7746 69.1326 31.2839 73.5801 30.0452M62.5495 31.3896C61.5552 33.0082 60.478 34.5744 59.3222 36.0819C57.9167 38.1033 56.3631 40.0177 54.6742 41.8092C54.745 37.3319 58.5639 33.5464 62.5495 31.3896ZM44.5337 37.7634C44.9147 37.0493 49.5119 30.6538 50.7832 31.8898C51.081 32.1797 46.0883 38.658 45.8749 38.9244C44.8987 40.1415 43.8636 41.3027 42.7962 42.4339C43.1774 40.81 43.7608 39.2404 44.5327 37.7617M37.8631 33.7835C37.1109 35.8695 36.2436 37.9122 35.2654 39.9021C34.4145 41.9108 33.4121 43.8518 32.2667 45.7083C31.3256 41.3003 34.3816 36.7254 37.8624 33.7804M22.6611 41.9069C23.1041 40.2913 23.6967 38.7206 24.4314 37.2151C24.8618 39.0352 24.996 40.9127 24.8287 42.7754C24.4635 44.9072 23.8011 46.9773 22.861 48.9252C22.2647 46.6322 22.1968 44.2339 22.6622 41.9108M13.98 41.8728C14.0424 44.1474 13.9765 46.4238 13.7826 48.691C13.711 50.8022 13.4816 52.9051 13.0962 54.982C10.6815 51.1996 11.8083 45.8633 13.9836 41.8731" fill="#131414"/>
</svg>
