<svg width="101" height="101" viewBox="0 0 101 101" fill="none" xmlns="http://www.w3.org/2000/svg">
<path d="M100.112 50.057C100.112 59.9571 97.1759 69.6348 91.6756 77.8663C86.1752 86.0979 78.3575 92.5135 69.2109 96.302C60.0644 100.09 49.9998 101.082 40.29 99.1501C30.5801 97.2185 21.6611 92.4511 14.6607 85.4506C7.66038 78.4501 2.8931 69.531 0.961761 59.8211C-0.969579 50.1112 0.0217547 40.0466 3.8104 30.9002C7.59905 21.7537 14.0149 13.9361 22.2465 8.43589C30.4781 2.93571 40.1559 1.97559e-09 50.056 0C63.3317 0 76.0636 5.27374 85.451 14.6611C94.8383 24.0484 100.112 36.7813 100.112 50.057Z" fill="#3A7667"/>
<path d="M30.353 84.0718L30.837 84.3038L30.415 87.8628L32.883 85.2848L33.362 85.5148L32.896 89.0528L35.408 86.4958L35.892 86.7278L32.786 89.8858L32.362 89.6858L32.856 85.9638L30.256 88.6748L29.832 88.4748L30.353 84.0718Z" fill="#FDDDCF"/>
<path d="M38.007 87.8366L37.6201 89.1606L39.804 89.7986L39.677 90.2316L37.4931 89.5936L37.084 90.9936L39.509 91.7016L39.382 92.1346L36.4951 91.2906L37.6711 87.2676L40.5581 88.1116L40.431 88.5446L38.007 87.8366Z" fill="#FDDDCF"/>
<path d="M44.599 92.6589L44.527 93.1049L41.798 92.6629L42.469 88.5249L42.939 88.6009L42.339 92.2929L44.599 92.6589Z" fill="#FDDDCF"/>
<path d="M49.623 92.9996L49.603 93.4506L46.841 93.3296L47.024 89.1406L47.5 89.1616L47.337 92.8996L49.623 92.9996Z" fill="#FDDDCF"/>
<path d="M51.747 89.2407L52.221 89.1997L55.108 92.3697L54.808 88.9697L55.282 88.9277L55.648 93.1037L55.174 93.1447L52.287 89.9747L52.587 93.3747L52.113 93.4167L51.747 89.2407Z" fill="#FDDDCF"/>
<path d="M58.058 88.8917L58.367 90.2357L60.585 89.7257L60.685 90.1657L58.467 90.6757L58.794 92.0967L61.256 91.5307L61.356 91.9707L58.424 92.6447L57.484 88.5597L60.416 87.8857L60.516 88.3257L58.058 88.8917Z" fill="#FDDDCF"/>
<path d="M63.403 90.7379L63.555 90.2849C63.7852 90.4028 64.0374 90.4718 64.2955 90.4874C64.5537 90.5031 64.8123 90.4651 65.055 90.3759C65.662 90.1519 65.848 89.7059 65.717 89.3509C65.563 88.9329 65.129 88.9039 64.383 88.9979C63.525 89.1069 62.936 89.0439 62.683 88.3629C62.6342 88.1982 62.6188 88.0253 62.6378 87.8545C62.6568 87.6838 62.7098 87.5185 62.7937 87.3686C62.8775 87.2186 62.9906 87.087 63.1262 86.9814C63.2618 86.8758 63.4171 86.7985 63.5831 86.7539C64.0981 86.5613 64.6684 86.5796 65.17 86.8049L65.024 87.2559C64.6143 87.0561 64.1426 87.0249 63.71 87.1689C63.5011 87.2236 63.3221 87.3583 63.2117 87.5439C63.1013 87.7296 63.0683 87.9512 63.12 88.1609C63.27 88.5679 63.713 88.5669 64.441 88.4799C65.257 88.3799 65.894 88.4499 66.15 89.1429C66.38 89.7669 66.099 90.4499 65.184 90.7889C64.8989 90.901 64.5941 90.9543 64.2878 90.9456C63.9816 90.9368 63.6803 90.8662 63.402 90.7379" fill="#FDDDCF"/>
<path d="M68.414 88.7346L68.507 88.2666C68.7504 88.3543 69.0093 88.3908 69.2675 88.3736C69.5257 88.3564 69.7774 88.2859 70.007 88.1666C70.58 87.8666 70.707 87.4006 70.534 87.0666C70.328 86.6716 69.894 86.6986 69.166 86.8856C68.329 87.1026 67.737 87.1156 67.401 86.4716C67.3317 86.3143 67.2946 86.1447 67.2919 85.9729C67.2892 85.801 67.3209 85.6304 67.3853 85.471C67.4496 85.3116 67.5451 85.1667 67.6664 85.0449C67.7876 84.923 67.932 84.8267 68.091 84.7616C68.5776 84.5051 69.1457 84.4508 69.672 84.6106L69.585 85.0766C69.153 84.9306 68.6809 84.9597 68.27 85.1576C68.0697 85.2384 67.9093 85.3948 67.8234 85.593C67.7375 85.7911 67.7331 86.0151 67.811 86.2166C68.011 86.6006 68.45 86.5436 69.162 86.3646C69.962 86.1646 70.6 86.1506 70.942 86.8056C71.25 87.3956 71.058 88.1056 70.192 88.5606C69.9235 88.7081 69.6279 88.7998 69.323 88.83C69.0182 88.8602 68.7103 88.8285 68.418 88.7366" fill="#FDDDCF"/>
<path d="M70.962 61.6311C77.762 61.0741 81.991 54.1671 81.991 54.1671C69.143 64.0451 62.347 57.5091 58.931 54.3901C55.515 51.2711 55.849 42.5821 61.27 42.7301C66.691 42.8781 65.429 49.3401 65.429 49.3401C71.098 42.3591 61.396 34.7681 49.165 39.8341C40.798 43.3001 36.691 55.7901 31.341 58.8461C25.941 61.9291 17.899 58.4001 17.899 58.4001C17.899 58.4001 27.855 65.0131 34.51 60.1331C38.223 57.4101 41.244 51.4691 41.244 51.4691C41.244 51.4691 45.7 43.4111 51.06 41.1331C54.7367 39.6329 58.8541 39.6286 62.534 41.1211C61.482 41.0281 56.023 40.6511 54.711 48.0031C53.786 53.1881 56.444 57.4101 59.018 58.9951C61.592 60.5801 64.166 62.1881 70.962 61.6311Z" fill="white"/>
<path d="M47.159 51.7159C47.159 51.7159 43.992 50.0229 40.549 56.6159C37.467 62.5159 36.316 64.0429 29.669 64.7159C29.669 64.7159 37.207 66.2749 40.698 62.3019C42.091 60.7159 42.22 58.9229 42.629 57.6229C43.3991 55.1852 45.0029 53.0964 47.159 51.7229" fill="white"/>
<path d="M58.324 61.5943C58.324 61.5943 60.999 64.1253 63.624 64.3173C65.6774 64.4197 67.7351 64.2363 69.738 63.7722C69.738 63.7722 67.585 65.3563 63.45 65.0143C60.142 64.7403 58.326 61.5933 58.326 61.5933" fill="white"/>
<path d="M49.164 36.6401C49.164 36.6401 52.135 34.4121 54.833 34.4121C56.4436 34.5165 57.9788 35.1324 59.215 36.1701C57.8394 35.541 56.3456 35.2117 54.833 35.2041C52.884 35.407 50.9746 35.8907 49.164 36.6401Z" fill="white"/>
<path d="M66.858 40.0933C66.858 40.0933 69.643 40.1863 70.831 42.0433C72.06 43.9633 69.773 47.1303 69.773 47.1303C69.773 47.1303 70.573 44.5193 69.847 42.8603C69.217 41.6078 68.1554 40.6244 66.858 40.0933Z" fill="white"/>
<path d="M11.1332 56.9317L9.39301 58.6719L11.1332 60.4121L12.8734 58.6719L11.1332 56.9317Z" fill="white"/>
<path d="M89.1252 56.9317L87.385 58.6719L89.1252 60.4121L90.8654 58.6719L89.1252 56.9317Z" fill="white"/>
<path d="M12.569 28.582L13.584 27.24L18.258 29.101L15.358 24.901L16.374 23.559L21.207 25.21L18.138 21.215L19.153 19.873L23.597 25.979L22.657 27.221L17.669 25.584L20.594 29.948L19.648 31.198L12.569 28.582Z" fill="#FDDDCF"/>
<path d="M24.329 17.5342L25.194 18.6872L28.094 16.5092L28.938 17.6342L26.038 19.8122L26.991 21.0832L30.198 18.6782L31.037 19.7982L26.58 23.1342L22.243 17.3502L26.697 14.0112L27.538 15.1342L24.329 17.5342Z" fill="#FDDDCF"/>
<path d="M32.141 17.8752L32.518 16.5382C33.3554 16.8168 34.2664 16.7751 35.075 16.4212C35.784 16.1002 36.001 15.6092 35.815 15.1972C35.602 14.7272 35.154 14.7572 34.043 14.9822C32.51 15.2942 31.343 15.3482 30.768 14.0722C30.217 12.8542 30.837 11.5722 32.276 10.9192C33.2069 10.4664 34.2728 10.3755 35.267 10.6642L34.988 12.0142C34.2592 11.8032 33.4803 11.8459 32.779 12.1352C32.179 12.4082 31.954 12.8892 32.132 13.2822C32.349 13.7612 32.811 13.7372 33.932 13.5082C35.494 13.1832 36.624 13.1802 37.175 14.3982C37.743 15.6542 37.175 16.9172 35.56 17.6452C34.4915 18.1545 33.2688 18.2364 32.142 17.8742" fill="#FDDDCF"/>
<path d="M40.8329 9.63033L38.6329 10.0883L38.3489 8.71833L44.2819 7.48633L44.5659 8.85633L42.3659 9.31433L43.5509 15.0203L42.0269 15.3363L40.8329 9.63033Z" fill="#FDDDCF"/>
<path d="M47.656 10.7571C47.6944 9.9968 47.9575 9.26496 48.4119 8.65415C48.8663 8.04334 49.4916 7.581 50.2088 7.3256C50.9259 7.0702 51.7028 7.03321 52.4409 7.21932C53.1791 7.40542 53.8456 7.80625 54.356 8.37112L53.21 9.35712C53.0089 9.10527 52.7561 8.89951 52.4687 8.75373C52.1813 8.60796 51.8659 8.52556 51.544 8.51212C50.9398 8.52056 50.3626 8.76314 49.9337 9.18876C49.5049 9.61438 49.258 10.1898 49.2451 10.7939C49.2321 11.3979 49.4541 11.9834 49.8643 12.427C50.2744 12.8707 50.8408 13.1378 51.444 13.1721C51.7663 13.1721 52.0848 13.1029 52.3781 12.9692C52.6714 12.8355 52.9326 12.6404 53.144 12.3971L54.244 13.4301C53.8731 13.8025 53.4311 14.0964 52.9442 14.2942C52.4572 14.4919 51.9354 14.5895 51.41 14.5811C50.4087 14.5582 49.4557 14.1461 48.7534 13.4321C48.051 12.7182 47.6545 11.7586 47.6479 10.7571" fill="#FDDDCF"/>
<path d="M56.773 11.1969C56.9568 10.4554 57.3575 9.78546 57.924 9.27278C58.4904 8.76009 59.1968 8.42794 59.953 8.31874C60.7092 8.20955 61.4807 8.32828 62.1691 8.65976C62.8574 8.99124 63.4313 9.52042 63.8174 10.1797C64.2035 10.8389 64.3843 11.5984 64.3366 12.3609C64.289 13.1234 64.0151 13.8544 63.5499 14.4605C63.0848 15.0665 62.4495 15.5202 61.7252 15.7634C61.001 16.0066 60.2207 16.0284 59.484 15.8259C58.5175 15.5606 57.693 14.928 57.1865 14.0631C56.68 13.1983 56.5316 12.1697 56.773 11.1969ZM62.648 12.8109C62.748 12.3818 62.7197 11.9327 62.5666 11.5195C62.4135 11.1064 62.1423 10.7473 61.7868 10.487C61.4313 10.2266 61.0071 10.0765 60.567 10.0553C60.1268 10.0341 59.6902 10.1426 59.3113 10.3676C58.9323 10.5925 58.6278 10.9238 58.4357 11.3203C58.2435 11.7168 58.1721 12.1611 58.2304 12.5979C58.2886 13.0346 58.474 13.4447 58.7633 13.777C59.0527 14.1093 59.4334 14.3492 59.858 14.4669C60.4471 14.6087 61.0683 14.515 61.5894 14.2057C62.1104 13.8964 62.4903 13.396 62.648 12.8109Z" fill="#FDDDCF"/>
<path d="M69.961 19.1061L67.182 17.4821L66.209 18.2291L64.709 17.3531L70.898 12.5991L72.398 13.4751L71.298 21.2021L69.788 20.3241L69.961 19.1061ZM70.161 17.7001L70.567 14.8791L68.308 16.6171L70.161 17.7001Z" fill="#FDDDCF"/>
<path d="M73.155 21.3762L74.535 21.2252C74.5905 22.1056 74.9703 22.9343 75.601 23.5512C76.164 24.0882 76.701 24.1062 77.013 23.7782C77.369 23.4052 77.174 23.0002 76.549 22.0552C75.685 20.7552 75.199 19.6912 76.165 18.6792C77.087 17.7132 78.511 17.8062 79.652 18.8952C80.4205 19.5885 80.9041 20.5425 81.009 21.5722L79.653 21.8192C79.575 21.0654 79.2436 20.3603 78.713 19.8192C78.234 19.3612 77.705 19.3372 77.407 19.6492C77.044 20.0292 77.24 20.4492 77.872 21.4012C78.758 22.7272 79.185 23.7742 78.262 24.7402C77.311 25.7402 75.925 25.6802 74.647 24.4602C73.7744 23.6605 73.2403 22.5576 73.154 21.3772" fill="#FDDDCF"/>
<path d="M84.058 26.3311L82.8029 24.4621L83.964 23.6821L87.343 28.7121L86.1819 29.4921L84.927 27.6231L80.089 30.8731L79.2209 29.5801L84.058 26.3311Z" fill="#FDDDCF"/>
</svg>
